<?xml version="1.0" standalone="no"?>
<!DOCTYPE svg PUBLIC "-//W3C//DTD SVG 20010904//EN"
 "http://www.w3.org/TR/2001/REC-SVG-20010904/DTD/svg10.dtd">
<svg version="1.0" xmlns="http://www.w3.org/2000/svg"
 width="736.000000pt" height="736.000000pt" viewBox="0 0 736.000000 736.000000"
 preserveAspectRatio="xMidYMid meet">

<g transform="translate(0.000000,736.000000) scale(0.100000,-0.100000)"
fill="#304222" stroke="none">
<path d="M4520 6648 c-30 -12 -72 -22 -92 -22 -25 0 -33 -3 -25 -9 7 -5 1 -6
-16 -2 -19 4 -26 2 -22 -5 3 -5 2 -10 -4 -10 -5 0 -18 -3 -28 -6 -15 -5 -16
-4 -3 6 13 10 13 11 -1 7 -73 -23 -170 -49 -254 -67 -131 -29 -135 -30 -110
-40 13 -5 58 2 120 17 l99 25 66 -22 c36 -13 77 -29 91 -36 23 -12 42 -9 158
21 140 38 183 42 199 23 5 -7 31 -54 56 -105 32 -63 54 -94 69 -99 12 -3 31
-14 41 -23 26 -22 22 -15 -93 153 -77 111 -194 258 -167 209 8 -15 -6 -17 -19
-4 -6 6 -31 2 -65 -11z"/>
<path d="M3735 6444 c-34 -8 -82 -12 -111 -8 -30 3 -99 -3 -170 -15 -65 -11
-143 -23 -173 -26 -45 -6 -51 -9 -40 -21 12 -11 30 -11 117 1 l102 15 63 -35
62 -34 140 25 c236 41 209 42 316 -11 51 -26 100 -52 107 -58 7 -5 54 -27 105
-47 51 -21 128 -55 172 -75 212 -99 276 -128 420 -189 183 -78 183 -78 240
-188 28 -53 54 -100 59 -105 5 -5 6 -3 2 5 -9 15 -3 15 63 -3 29 -7 65 -24 79
-37 l25 -23 -24 40 c-176 296 -198 325 -273 353 -45 17 -52 25 -92 98 -48 88
-82 127 -136 155 -30 15 -275 119 -441 187 -35 14 -45 14 -135 -6 -53 -12
-135 -29 -181 -37 l-84 -15 -66 35 c-36 19 -70 35 -76 34 -5 -1 -37 -7 -70
-15z"/>
<path d="M2965 6324 c-44 -8 -96 -11 -117 -8 -42 6 -420 -64 -412 -77 8 -13
50 -10 144 11 l85 18 56 -28 56 -28 184 26 183 25 81 -41 c44 -23 123 -70 175
-104 52 -34 118 -74 145 -89 28 -14 120 -64 205 -110 223 -121 613 -312 895
-439 28 -12 132 -63 233 -111 101 -49 185 -89 187 -89 1 0 42 -19 90 -41 63
-30 84 -44 74 -51 -9 -5 -5 -6 14 -2 15 3 27 2 27 -2 0 -10 -126 -54 -286 -99
-112 -32 -112 -32 -148 -13 -20 10 -36 16 -36 13 0 -4 -13 3 -29 14 -16 12
-33 21 -39 21 -5 0 -45 18 -88 40 -43 22 -85 40 -91 40 -7 0 -13 4 -13 8 0 5
-19 16 -42 26 -24 10 -86 39 -138 65 -97 49 -109 55 -170 86 -19 10 -43 22
-52 27 -97 45 -313 160 -330 176 -10 8 -18 12 -18 8 0 -7 -63 26 -182 95 -36
21 -69 39 -72 39 -3 0 -24 13 -48 29 -24 15 -62 39 -85 52 -23 13 -89 52 -145
87 -57 34 -112 68 -123 74 -11 7 -31 20 -45 29 -14 9 -57 33 -95 54 -39 21
-76 42 -83 48 -7 6 -32 20 -55 32 -23 12 -63 34 -89 49 -47 27 -48 27 -145 16
-265 -30 -323 -39 -323 -51 0 -5 5 -9 11 -9 15 0 266 -142 340 -192 77 -52
379 -236 407 -248 18 -8 148 -80 292 -163 19 -11 80 -46 135 -77 55 -31 161
-92 235 -135 126 -73 545 -293 672 -353 32 -15 57 -30 58 -34 0 -4 -12 -11
-27 -14 -56 -13 -240 -66 -298 -85 -63 -22 -114 -19 -135 6 -7 8 -18 15 -25
15 -10 0 -138 69 -240 129 -16 10 -51 29 -77 44 -25 14 -64 37 -87 51 -22 14
-44 26 -49 26 -5 0 -17 9 -27 20 -10 11 -21 18 -24 15 -4 -2 -20 5 -37 16 -16
11 -43 26 -60 35 -17 8 -41 24 -53 35 -11 11 -21 17 -21 14 0 -3 -17 6 -37 20
-21 14 -42 25 -46 25 -5 0 -21 8 -35 18 -15 11 -52 32 -82 48 -80 42 -150 91
-142 98 3 4 -1 4 -9 1 -9 -3 -22 1 -29 10 -7 8 -16 15 -21 15 -5 0 -47 25 -94
55 -46 30 -88 55 -93 55 -4 0 -23 13 -42 30 -19 16 -41 29 -47 30 -7 0 -13 4
-13 9 0 5 -8 11 -17 15 -10 3 -31 14 -48 25 -16 10 -64 37 -105 60 -41 23 -82
46 -90 51 -35 22 -165 78 -325 141 -33 13 -64 26 -70 30 -5 4 -25 10 -42 14
-18 3 -35 10 -38 15 -8 13 198 87 370 133 l50 14 -27 13 c-24 11 -37 10 -95
-8 -150 -47 -255 -92 -341 -147 -56 -35 -230 -95 -342 -118 l-65 -13 125 -61
c140 -68 248 -115 525 -228 236 -96 400 -177 586 -289 206 -124 616 -374 669
-407 25 -16 71 -42 103 -59 31 -17 82 -46 112 -65 30 -19 59 -35 65 -35 20 0
10 -20 -12 -24 -13 -3 -34 -7 -48 -10 -47 -9 -95 -24 -82 -25 23 -2 12 -19
-15 -25 -241 -47 -428 -75 -385 -56 12 5 44 12 70 16 82 11 79 19 -28 75 -36
18 -76 41 -90 50 -22 15 -59 36 -125 73 -34 19 -108 67 -152 97 -23 16 -45 29
-49 29 -4 0 -22 11 -40 25 -47 36 -236 129 -494 244 -422 187 -769 360 -915
456 -27 18 -77 46 -110 63 -33 16 -88 45 -123 64 -53 30 -69 34 -100 28 -57
-11 -415 -91 -430 -96 -8 -2 163 -93 380 -202 216 -109 445 -226 508 -259 63
-33 185 -96 270 -140 85 -44 191 -99 235 -123 44 -23 136 -70 205 -105 178
-89 609 -305 645 -324 26 -13 27 -16 10 -19 -45 -8 -218 -53 -233 -62 -25 -13
-112 -39 -147 -44 -16 -2 -43 -8 -58 -15 -34 -13 -54 -14 -62 -2 -3 6 -43 28
-88 51 -45 22 -104 53 -132 69 -27 16 -84 47 -125 68 -84 44 -185 99 -245 133
-22 13 -71 40 -110 60 -141 76 -202 108 -280 151 -81 45 -558 283 -715 357
-47 22 -114 50 -150 63 -98 34 -124 46 -112 53 6 3 13 2 17 -4 3 -5 10 -10 16
-10 13 0 11 27 -3 34 -10 5 -10 7 0 12 17 8 15 34 -3 34 -11 0 -14 9 -10 39 3
27 0 42 -10 51 -14 11 -14 15 2 33 17 19 14 18 -24 -3 -37 -20 -82 -66 -107
-108 -4 -7 -2 -19 4 -27 10 -12 9 -15 -3 -15 -35 0 -44 -126 -17 -254 11 -54
20 -100 20 -102 0 -2 22 -16 48 -31 27 -16 47 -34 45 -40 -3 -7 -1 -13 4 -13
4 0 8 -38 8 -84 0 -57 4 -89 13 -98 11 -11 12 -2 6 51 -5 45 -4 62 4 57 11 -7
20 -56 26 -141 2 -27 11 -77 20 -109 9 -33 14 -61 13 -63 -7 -6 -67 29 -77 45
-14 25 -12 10 19 -148 58 -288 58 -287 105 -323 41 -31 42 -34 45 -96 3 -66
18 -127 22 -86 1 11 5 -2 10 -30 5 -27 6 -63 3 -78 l-6 -28 40 28 c22 15 38
30 36 32 -2 2 1 10 7 17 7 9 5 14 -9 19 -11 3 -23 18 -26 33 -4 15 -9 35 -13
46 -3 11 -1 16 5 12 6 -3 14 -1 18 5 4 8 3 9 -4 5 -12 -7 -32 23 -32 48 0 20
14 20 33 1 8 -8 17 -11 21 -8 3 4 6 1 6 -6 0 -7 4 -10 9 -7 8 5 173 -62 187
-76 3 -3 -12 -12 -33 -18 -83 -28 -243 -130 -243 -156 0 -9 -4 -12 -10 -9 -5
3 -10 1 -10 -5 0 -6 7 -13 16 -17 11 -4 12 -8 4 -13 -19 -12 6 -58 42 -76 36
-19 144 -24 233 -12 61 8 329 96 333 109 2 5 10 9 18 9 9 0 12 4 9 10 -3 5 0
8 7 5 7 -3 47 6 88 20 41 13 71 24 65 25 -5 0 -3 5 5 10 8 5 26 7 40 4 17 -4
21 -3 12 4 -11 7 -10 10 3 16 24 9 27 8 19 -6 -5 -8 -2 -9 10 -5 10 4 21 7 24
7 4 0 0 5 -8 11 -12 8 -9 9 12 5 20 -5 33 -1 48 14 21 21 36 27 26 11 -4 -5 3
-7 14 -4 12 3 18 8 15 11 -2 3 4 12 15 19 16 11 24 12 34 4 11 -9 28 -6 71 14
68 30 65 29 65 9 0 -13 7 -15 35 -10 33 7 34 5 44 -31 25 -100 61 -263 61
-275 0 -25 94 -428 100 -428 7 0 38 41 147 198 38 55 69 90 75 86 7 -4 8 -2 4
4 -6 10 16 56 34 72 3 3 26 34 50 70 25 36 76 110 114 165 119 171 125 175
179 153 27 -10 27 -11 7 -25 -13 -9 -25 -11 -37 -5 -20 11 -63 -2 -63 -18 0
-6 27 -8 78 -4 42 3 89 6 105 6 15 1 27 5 27 11 0 6 3 8 6 4 4 -3 18 0 33 7
14 7 34 11 44 8 11 -2 20 5 26 20 6 13 10 18 10 11 1 -16 41 -12 41 5 0 8 -5
10 -12 6 -7 -4 -10 -3 -5 1 4 5 17 10 29 12 12 2 27 8 33 13 7 6 16 5 23 -2 9
-9 12 -8 12 5 0 9 4 17 9 17 20 0 1 -43 -49 -110 -27 -38 -50 -72 -50 -75 0
-3 -16 -28 -36 -55 -31 -44 -38 -49 -53 -38 -14 12 -14 11 -2 -4 11 -15 10
-22 -7 -50 -10 -18 -25 -32 -31 -30 -7 1 -10 -2 -6 -8 8 -13 -14 -42 -25 -35
-4 3 -14 -3 -21 -12 -12 -15 -12 -16 3 -10 15 5 16 3 6 -18 -6 -14 -14 -25
-18 -25 -4 0 -12 -12 -19 -27 -7 -16 -44 -71 -82 -123 -38 -52 -85 -117 -103
-145 -19 -27 -39 -49 -45 -48 -5 2 -8 -3 -5 -11 3 -8 0 -17 -7 -22 -8 -5 -10
-3 -4 7 5 8 4 11 -1 6 -5 -5 -9 -14 -9 -20 0 -21 -66 -117 -76 -111 -5 3 -9 2
-8 -3 4 -16 -15 -49 -74 -128 -33 -44 -64 -79 -69 -77 -6 2 -8 -4 -5 -13 4 -8
2 -15 -3 -15 -6 0 -10 -4 -10 -10 0 -5 -13 -29 -30 -52 l-30 -43 14 -65 c8
-36 31 -144 52 -240 21 -96 43 -179 50 -185 7 -5 20 -41 29 -80 9 -38 21 -81
26 -94 7 -17 7 -26 -2 -31 -8 -6 -8 -9 0 -14 6 -4 11 -2 11 4 0 7 7 9 16 6 8
-3 23 -2 32 3 9 4 36 11 59 14 37 4 42 3 34 -11 -7 -14 -4 -17 15 -18 13 -1
24 2 24 7 0 5 -4 9 -9 9 -5 0 -11 9 -14 19 -3 13 0 18 8 15 7 -3 16 -1 20 5 4
7 -5 11 -22 11 -18 0 -33 8 -41 21 -9 15 -19 18 -35 13 -19 -6 -20 -5 -8 10 9
11 10 16 2 16 -7 0 -9 5 -5 11 4 8 9 7 15 -2 8 -12 11 -11 19 1 9 13 11 13 20
0 9 -13 10 -13 10 0 0 9 -5 21 -12 28 -9 9 -9 12 0 12 7 0 12 -6 12 -12 0 -7
7 -2 16 10 9 13 13 26 9 30 -3 3 -9 2 -13 -3 -9 -12 -102 -15 -102 -3 0 4 -7
8 -15 8 -16 0 -21 -15 -7 -23 4 -2 0 -1 -8 1 -8 3 -25 5 -37 5 -16 -1 -23 5
-23 18 0 10 -4 19 -10 19 -5 0 -10 5 -10 11 0 5 4 7 10 4 5 -3 7 0 4 8 -3 8 9
29 28 48 18 18 27 30 21 25 -21 -12 -15 3 21 49 18 25 36 41 40 37 4 -3 4 1 0
11 -3 10 -1 17 5 17 6 0 11 5 11 10 0 6 33 59 73 118 39 59 77 114 82 124 6 9
33 49 60 89 28 39 55 79 60 87 6 9 27 41 48 71 53 77 270 399 282 419 6 10 33
51 60 92 27 41 79 125 116 185 37 61 73 109 79 107 6 -1 9 2 6 7 -7 10 10 41
55 108 14 21 43 64 64 96 37 56 39 57 59 40 34 -30 56 -58 52 -68 -2 -5 8 -11
23 -12 14 0 35 -13 48 -27 12 -14 25 -26 29 -26 3 0 18 -13 32 -28 15 -16 33
-31 41 -33 16 -6 10 -19 -91 -184 -146 -238 -270 -430 -277 -430 -5 0 -13 -4
-18 -9 -5 -5 -2 -6 6 -1 7 4 12 4 10 -1 -4 -10 -86 -143 -109 -178 -8 -12 -30
-49 -49 -80 -19 -32 -48 -73 -66 -92 -18 -19 -28 -34 -23 -34 5 0 6 -5 3 -10
-4 -6 -11 -7 -17 -4 -6 4 -8 2 -4 -4 3 -6 -4 -26 -16 -46 -13 -19 -43 -67 -67
-105 -30 -48 -47 -67 -53 -59 -11 18 -10 30 2 23 6 -3 10 -2 10 4 0 5 -4 13
-10 16 -5 3 -10 1 -10 -5 0 -6 -5 -8 -11 -4 -6 3 -3 -8 6 -25 15 -30 15 -33
-5 -60 -11 -16 -20 -33 -20 -38 0 -6 -10 -18 -22 -29 -12 -10 -18 -13 -14 -7
5 9 2 11 -9 7 -12 -5 -13 -10 -4 -20 8 -10 5 -21 -15 -47 -14 -19 -26 -39 -26
-45 0 -20 -18 -13 -25 8 -3 11 -11 20 -16 20 -5 0 -2 -11 6 -24 13 -19 14 -29
5 -45 -6 -12 -13 -21 -15 -21 -8 0 -1 24 10 33 6 5 3 7 -6 4 -12 -4 -16 1 -16
20 0 14 -12 37 -27 52 -18 17 -25 20 -20 9 3 -10 1 -18 -4 -18 -6 0 -10 -12
-9 -26 1 -15 -4 -29 -12 -32 -9 -3 -11 1 -7 16 5 16 -2 31 -30 59 -20 21 -29
27 -18 13 10 -14 23 -28 28 -32 5 -3 10 -22 11 -42 0 -28 -3 -36 -16 -36 -10
0 -25 -3 -35 -7 -12 -4 -15 -3 -10 6 4 6 1 23 -8 36 -9 13 -13 32 -10 42 5 17
5 17 -6 1 -8 -13 -8 -23 0 -38 7 -13 7 -20 0 -20 -5 0 -10 5 -10 10 0 6 -5 10
-12 10 -9 0 -9 -3 0 -12 14 -14 16 -28 3 -28 -5 0 -18 15 -30 33 -14 22 -21
26 -21 15 0 -10 4 -18 9 -18 14 0 23 -33 10 -40 -8 -6 -8 -9 0 -14 6 -4 11 -2
11 5 0 7 12 2 26 -12 l27 -24 -13 24 c-10 19 -9 26 4 39 9 9 16 11 16 5 0 -6
-4 -13 -10 -15 -6 -2 -6 -9 0 -18 7 -12 13 -12 32 -1 13 7 28 11 34 10 18 -3
74 14 74 23 0 5 5 6 10 3 6 -3 10 -13 10 -22 0 -9 -3 -13 -7 -10 -3 4 -12 2
-19 -3 -6 -6 -16 -10 -20 -9 -22 4 -33 -3 -39 -21 -4 -11 -11 -18 -16 -14 -6
3 -16 0 -24 -6 -20 -16 -19 -3 0 16 8 9 19 12 25 9 5 -3 10 -1 10 4 0 19 -30
12 -54 -12 -22 -22 -22 -22 -38 -3 -15 20 -16 20 -34 2 -18 -18 -17 -18 3 -12
12 4 24 2 28 -3 3 -7 0 -8 -9 -5 -12 5 -16 -1 -16 -20 0 -15 -7 -29 -15 -32
-10 -4 -13 -13 -9 -27 5 -17 3 -19 -20 -13 -14 3 -26 2 -26 -2 0 -15 36 -42
55 -42 14 0 15 3 5 15 -10 12 -10 15 4 15 9 0 16 -7 16 -15 0 -8 4 -15 10 -15
5 0 6 -7 3 -17 -4 -10 -2 -14 5 -9 6 3 14 1 18 -5 4 -8 3 -9 -4 -5 -7 4 -12 1
-12 -8 0 -9 -4 -16 -10 -16 -5 0 -10 -7 -10 -16 0 -12 -6 -15 -25 -10 -14 4
-25 2 -25 -4 0 -10 15 -14 34 -11 5 1 3 -5 -4 -14 -13 -15 -15 -15 -29 4 -13
17 -21 19 -46 12 -16 -5 -24 -10 -17 -10 7 -1 10 -6 6 -13 -5 -7 -11 -5 -21 7
-8 12 -13 14 -13 5 0 -9 -6 -8 -20 5 -19 18 -20 17 -20 -6 0 -13 6 -55 14 -92
8 -38 12 -76 9 -85 -5 -11 -3 -13 7 -7 10 6 12 2 8 -19 -3 -14 -1 -29 3 -32 5
-3 9 -1 9 5 0 14 62 102 68 96 3 -2 -7 -20 -22 -39 -14 -19 -26 -38 -26 -42 0
-4 -7 -15 -16 -25 -8 -9 -16 -30 -16 -45 0 -16 23 -145 52 -286 44 -211 56
-256 67 -247 10 9 13 8 13 -2 0 -8 7 -27 15 -42 10 -21 11 -27 2 -24 -6 2 -13
13 -15 25 -2 12 -8 22 -13 22 -6 0 -8 -3 -5 -8 2 -4 20 -86 40 -182 20 -96 42
-201 48 -232 9 -45 15 -55 25 -46 10 8 11 14 1 25 -9 11 -9 16 2 23 8 5 17 5
20 0 3 -5 12 -5 20 0 11 7 12 10 2 10 -7 0 -10 5 -6 11 4 7 15 2 31 -15 20
-22 22 -30 12 -42 -22 -27 -51 -38 -60 -23 -7 11 -9 10 -9 -3 0 -10 5 -18 10
-18 36 0 314 70 465 117 99 31 250 77 335 103 604 184 958 296 1122 354 70 24
132 47 138 51 5 3 10 18 10 32 0 20 -3 23 -13 14 -8 -6 -16 -8 -20 -5 -10 10
-47 -7 -47 -21 0 -21 -23 -24 -43 -6 -17 15 -18 14 -12 -11 6 -24 3 -27 -72
-56 -43 -16 -80 -25 -82 -20 -4 11 26 73 48 101 8 9 11 17 7 17 -3 0 7 27 24
60 17 33 35 60 41 60 8 0 8 -5 -1 -15 -13 -16 -6 -35 14 -35 17 0 66 -23 66
-32 0 -3 -10 -4 -22 -2 -13 2 -17 2 -10 -2 6 -3 12 -15 12 -27 0 -18 4 -15 17
12 12 24 14 36 6 38 -7 3 -9 12 -6 20 5 12 2 15 -10 10 -9 -3 -17 -3 -17 2 0
5 11 11 24 13 19 4 22 1 18 -14 -5 -19 22 -68 38 -68 5 0 2 19 -6 43 -9 23
-16 61 -16 85 -1 29 -4 39 -10 30 -7 -9 -8 -7 -5 8 4 20 -28 52 -41 40 -3 -3
-2 -6 2 -6 5 0 1 -11 -8 -25 -9 -14 -15 -29 -12 -33 3 -5 -4 -13 -15 -20 -12
-8 -19 -8 -19 -2 0 10 28 58 40 70 3 3 5 10 5 15 0 6 6 27 13 47 12 35 10 45
-27 155 -63 187 -129 371 -136 383 -11 19 -22 10 -18 -14 3 -16 -3 -32 -18
-47 -13 -13 -24 -28 -24 -34 0 -5 -9 -27 -19 -48 -14 -28 -21 -35 -27 -25 -6
8 -3 14 6 16 9 2 12 8 9 13 -3 6 -14 3 -26 -8 -11 -10 -25 -18 -31 -19 -7 0
-20 -2 -30 -2 -10 -1 -15 -7 -12 -12 4 -6 15 -8 26 -5 11 4 19 2 19 -5 0 -7 8
-10 20 -7 25 6 25 0 2 -36 -10 -15 -22 -24 -27 -20 -4 5 -5 2 -1 -4 7 -13
-117 -272 -146 -303 -9 -10 -15 -20 -12 -22 3 -4 -94 -202 -110 -225 -1 -1 -8
2 -15 6 -11 7 -9 13 8 30 11 11 21 31 21 44 0 18 -2 19 -10 7 -7 -10 -10 -11
-10 -2 0 7 11 17 25 22 14 5 25 17 25 28 0 10 3 22 7 26 4 3 8 12 9 19 8 39
14 58 19 67 3 6 1 10 -5 10 -6 0 -8 5 -4 12 4 6 -8 0 -28 -15 -19 -15 -50 -29
-69 -31 -19 -3 -43 -8 -54 -12 -18 -7 -18 -6 -6 9 7 9 24 17 38 17 33 0 21 16
-17 24 -17 3 -29 10 -26 15 3 5 -3 7 -14 4 -14 -4 -19 -12 -16 -27 2 -11 1
-15 -1 -8 -5 14 -53 17 -53 3 0 -6 9 -8 20 -6 24 5 27 -10 3 -19 -11 -5 -22
-1 -29 9 -11 15 -17 15 -61 1 -26 -8 -40 -15 -30 -15 15 -1 16 -4 7 -21 -6
-11 -7 -20 -3 -19 31 5 51 -5 67 -33 l17 -33 -23 28 c-13 15 -28 27 -32 27 -5
0 -3 -6 3 -14 7 -8 8 -17 3 -20 -6 -3 -15 1 -22 9 -10 12 -16 13 -26 4 -10 -8
-14 -8 -14 -1 0 6 -10 17 -22 23 -23 12 -23 12 -4 -10 11 -11 16 -24 13 -28
-4 -3 -7 -1 -7 5 0 18 -28 14 -40 -5 -7 -12 -10 -13 -7 -3 2 8 0 23 -4 32 -8
15 6 48 60 138 5 8 33 61 62 117 29 56 56 100 61 97 4 -3 5 1 2 9 -3 8 2 20
11 27 8 7 15 19 15 26 0 8 12 33 27 57 15 23 46 80 70 127 23 47 56 108 73
135 17 28 33 57 36 65 16 40 64 125 71 123 5 -1 9 10 10 25 0 14 9 32 19 39
11 8 19 21 19 31 0 9 5 16 11 15 7 -1 10 5 7 16 -2 9 3 24 12 31 14 12 18 12
26 -1 5 -8 9 -9 9 -4 0 6 -6 17 -12 23 -10 10 -10 17 0 32 19 30 16 46 -38
201 -89 254 -102 289 -111 283 -5 -3 -16 -20 -24 -37 -14 -31 -40 -78 -94
-167 -15 -25 -30 -52 -34 -60 -4 -8 -17 -31 -28 -50 -12 -19 -39 -69 -61 -110
-22 -41 -44 -80 -49 -85 -4 -6 -29 -51 -56 -101 -98 -183 -158 -283 -164 -273
-9 15 -41 -2 -34 -19 4 -12 3 -13 -9 -3 -12 10 -15 9 -13 -8 0 -11 5 -17 9
-15 4 3 8 1 8 -5 0 -5 -6 -12 -12 -14 -10 -4 -10 -6 -1 -6 7 -1 19 14 27 32
12 26 15 28 15 11 1 -12 -14 -37 -31 -55 -18 -18 -24 -27 -14 -19 18 14 19 14
6 -10 -7 -14 -25 -43 -39 -65 -14 -22 -41 -71 -61 -110 -21 -38 -48 -86 -62
-106 -14 -21 -31 -51 -38 -68 -7 -17 -16 -31 -21 -31 -5 0 -9 -8 -9 -17 0 -9
-7 -24 -15 -33 -8 -9 -30 -45 -49 -80 -19 -36 -40 -64 -47 -62 -7 2 -9 -4 -6
-13 4 -8 2 -15 -2 -15 -5 0 -12 7 -15 16 -4 11 1 18 14 21 16 4 19 11 14 27
-4 11 -3 18 1 14 8 -7 55 52 55 68 0 4 7 15 16 25 12 13 14 26 9 46 -5 15 -7
32 -6 36 1 5 -9 17 -21 27 -18 15 -20 20 -10 33 10 12 10 16 0 20 -10 4 -10 6
0 6 6 1 12 6 12 11 0 7 -8 7 -22 -1 l-23 -12 20 22 19 22 -28 -11 c-24 -9 -27
-8 -22 5 6 17 -9 21 -19 5 -3 -5 -11 -10 -17 -10 -6 0 -1 8 10 19 27 22 28 34
5 27 -10 -3 -24 -2 -32 3 -8 5 6 8 37 7 49 -2 50 -1 41 22 -13 34 -11 39 7 14
8 -12 19 -20 23 -18 3 3 7 -4 7 -15 0 -10 -4 -19 -8 -19 -5 0 -1 -11 8 -25 8
-13 13 -29 9 -34 -4 -7 0 -8 11 -4 14 5 15 3 7 -12 -12 -21 12 -56 33 -48 15
6 19 33 5 33 -5 0 -18 16 -30 35 l-20 35 27 1 27 1 -25 7 c-15 4 -28 3 -33 -3
-4 -6 -5 2 -3 18 7 40 21 52 41 36 12 -10 15 -10 15 4 0 9 8 16 18 17 13 0 14
2 2 6 -8 4 -22 15 -31 26 -16 20 -16 20 -27 -11 -13 -37 -18 -40 -25 -12 -3
11 -1 18 3 15 10 -6 32 29 24 38 -3 3 2 17 11 31 13 19 14 26 4 26 -7 0 -21 8
-31 17 -16 14 -22 15 -40 4 -23 -14 -34 -9 -22 11 5 7 9 18 10 23 1 6 3 15 4
20 6 27 -1 44 -19 42 -15 -1 -17 -5 -10 -18 12 -24 11 -30 -3 -28 -28 3 -36
-2 -31 -21 3 -11 0 -20 -6 -20 -6 0 -11 8 -12 18 0 13 -2 13 -9 -4 -5 -12 -13
-25 -19 -29 -15 -8 -14 -25 1 -25 6 0 9 3 5 6 -11 11 17 33 29 23 15 -12 38
16 30 36 -3 9 -2 14 3 11 10 -6 20 -49 26 -110 4 -35 3 -37 -10 -20 -7 11 -9
21 -4 22 14 6 11 22 -5 22 -23 0 -29 -33 -10 -47 16 -12 15 -13 -9 -13 -15 0
-27 5 -27 10 0 6 -7 10 -15 10 -8 0 -15 6 -15 14 0 8 -5 18 -11 22 -8 4 -9 -1
-4 -17 8 -24 8 -24 -14 -5 -33 30 -25 3 10 -30 19 -18 28 -23 24 -11 -6 13 -3
16 9 11 9 -3 13 -11 10 -16 -4 -6 2 -8 15 -3 12 4 21 2 21 -4 0 -6 -12 -14
-26 -17 -19 -5 -32 0 -55 22 -16 15 -29 22 -29 15 0 -7 12 -22 26 -34 l27 -21
-24 -8 c-12 -5 -29 -6 -37 -3 -8 3 -12 0 -9 -7 2 -8 19 -12 43 -11 30 2 34 0
19 -7 -18 -8 -17 -9 7 -9 15 -1 30 -6 34 -12 4 -8 -3 -9 -25 -4 -24 5 -31 3
-31 -9 0 -9 -11 -18 -25 -22 -26 -6 -32 -18 -15 -29 23 -14 8 -23 -17 -9 -36
18 -43 18 -43 -3 0 -15 -2 -16 -10 -3 -7 11 -5 18 5 26 13 10 13 12 -5 17 -32
8 -35 34 -6 71 14 19 26 38 26 41 0 4 13 26 28 49 15 22 31 48 35 56 4 8 16
29 27 45 11 17 27 44 36 60 9 17 20 32 23 35 3 3 15 21 26 41 61 112 98 168
105 164 5 -3 12 0 16 6 4 8 3 9 -4 5 -21 -13 -13 11 21 61 17 27 39 62 47 78
22 46 47 75 55 67 5 -4 5 -1 1 6 -4 7 -3 18 2 25 5 7 20 30 32 52 32 57 112
192 132 223 10 15 21 34 25 42 23 44 231 389 301 499 31 50 33 57 24 90 -13
40 -9 49 13 31 13 -11 14 -10 10 3 -4 8 -1 18 6 23 7 4 10 3 5 -4 -3 -6 -2
-13 4 -17 5 -3 10 -1 10 6 0 8 4 8 15 -1 8 -7 12 -17 8 -23 -3 -5 -1 -7 4 -4
14 9 104 -63 96 -76 -3 -5 -2 -7 4 -4 11 7 41 -14 126 -87 32 -27 59 -47 61
-45 2 2 -5 76 -14 164 -24 206 -40 362 -56 530 -7 78 -8 93 -20 185 -5 36 -9
70 -9 75 -1 6 -7 56 -15 112 -12 95 -12 104 4 122 10 11 24 17 32 14 8 -3 14
0 14 6 0 6 10 11 23 11 12 0 33 9 46 19 14 10 30 17 37 14 7 -2 15 0 19 6 3 6
14 11 23 11 15 0 15 -2 2 -10 -8 -5 -10 -10 -4 -10 6 0 17 7 24 15 7 9 15 13
18 10 3 -3 16 2 28 10 28 18 30 15 38 -55 3 -30 13 -95 21 -145 8 -49 19 -126
25 -170 6 -44 12 -91 15 -105 2 -14 16 -124 30 -245 14 -121 34 -285 45 -365
11 -80 23 -161 25 -180 2 -19 8 -53 12 -75 4 -22 6 -43 5 -46 0 -3 5 -46 13
-95 10 -62 12 -91 4 -99 -6 -6 -9 -6 -7 0 2 6 -8 21 -21 34 -18 18 -23 20 -18
7 4 -10 7 -20 7 -22 0 -2 7 -4 15 -4 8 0 14 -5 13 -12 -2 -7 3 -12 10 -13 6 0
28 -18 47 -39 19 -22 35 -36 35 -31 0 5 7 0 16 -11 8 -10 12 -12 8 -4 -7 14
35 -17 66 -50 8 -9 35 -30 60 -47 25 -17 63 -47 84 -66 22 -20 43 -34 48 -31
4 3 8 1 8 -3 0 -12 99 -87 106 -80 3 3 -8 13 -25 22 -17 8 -31 18 -31 21 0 3
15 -3 33 -13 17 -11 32 -26 32 -34 0 -8 8 -13 17 -13 10 1 16 -2 15 -6 -2 -8
96 -90 108 -90 4 0 1 7 -6 17 -8 9 -14 19 -14 22 0 3 -6 5 -12 5 -7 -1 -10 3
-7 8 8 12 -27 39 -43 33 -7 -2 -10 2 -6 11 3 7 0 14 -7 14 -6 0 -8 5 -5 10 3
6 0 10 -8 10 -7 0 -22 8 -33 19 -11 10 -30 24 -42 30 -12 6 -21 15 -20 19 1 4
-2 15 -7 25 -4 9 -5 25 -3 35 3 10 -1 23 -9 31 -10 9 -11 16 -3 26 8 9 8 14 0
17 -7 2 -12 29 -13 60 -1 31 -5 54 -9 51 -5 -2 -8 6 -8 18 0 12 -13 94 -29
183 -16 89 -37 206 -45 261 -30 185 -47 290 -61 365 -8 41 -19 109 -25 150 -6
41 -24 158 -40 260 -16 102 -32 214 -35 250 -4 36 -13 97 -21 137 -19 97 -18
102 7 96 12 -4 25 0 30 8 5 9 6 -2 2 -26 l-6 -40 44 40 c24 22 45 43 47 48 2
4 13 7 23 7 11 0 18 4 15 9 -3 5 3 11 13 14 14 3 18 1 14 -9 -7 -18 48 -19 66
-1 10 10 11 8 6 -8 -5 -15 -4 -16 3 -6 23 32 35 -5 67 -214 19 -122 69 -406
95 -535 11 -52 22 -111 24 -130 3 -19 18 -98 35 -175 17 -77 33 -158 37 -180
9 -62 72 -388 88 -458 29 -123 57 -289 52 -303 -3 -8 -2 -13 2 -10 5 3 21 -61
36 -142 16 -81 30 -157 33 -170 5 -21 3 -20 -26 8 -30 31 -40 47 -22 36 5 -3
11 1 14 9 4 9 1 12 -8 9 -10 -4 -12 1 -9 18 4 21 3 21 -5 3 -4 -11 -7 -23 -4
-27 2 -5 0 -8 -6 -8 -15 0 -101 62 -101 73 0 4 -4 6 -9 3 -5 -3 -14 1 -21 9
-7 8 -17 15 -22 15 -6 0 -4 -7 3 -17 8 -9 14 -19 14 -22 0 -3 6 -5 13 -4 8 0
11 -5 7 -15 -3 -9 -3 -14 0 -10 4 3 14 -1 23 -10 55 -54 213 -172 223 -166 7
4 9 3 5 -4 -8 -13 33 -44 47 -35 6 3 8 2 4 -3 -3 -5 32 -37 76 -70 45 -34 125
-94 177 -133 52 -39 130 -99 174 -133 43 -34 85 -61 92 -61 8 0 12 -3 9 -5 -6
-7 35 -52 47 -52 5 0 6 6 2 12 -4 7 2 4 14 -6 26 -23 29 -34 5 -15 -10 7 -7 1
6 -13 14 -16 29 -24 39 -21 9 4 13 2 9 -4 -4 -6 0 -16 8 -23 8 -7 15 -9 15 -4
0 5 7 -2 16 -14 20 -28 32 -28 45 2 11 23 12 23 41 7 28 -16 29 -15 51 13 59
77 264 401 256 404 -18 7 1 92 21 92 4 0 13 13 20 29 6 16 18 32 27 35 10 4
12 13 7 28 -3 13 -3 20 1 16 4 -4 15 3 25 15 23 29 75 129 75 144 0 7 11 20
23 29 13 9 21 22 18 29 -2 7 1 18 7 24 6 6 7 11 1 11 -18 0 -33 -22 -27 -39 4
-9 3 -13 -2 -9 -4 4 -16 -3 -25 -15 -13 -16 -15 -24 -7 -29 9 -6 8 -8 -1 -8
-7 0 -11 -4 -8 -9 8 -12 -22 -23 -37 -15 -9 5 -9 4 0 -6 14 -15 -3 -60 -23
-60 -6 0 -15 -8 -19 -17 -5 -15 -4 -16 6 -6 7 7 17 13 23 13 5 0 -10 -14 -32
-30 -23 -17 -42 -33 -42 -36 0 -3 5 -2 10 1 15 10 12 -25 -4 -41 -8 -8 -20
-14 -26 -14 -7 0 -10 -7 -7 -15 4 -8 2 -17 -4 -20 -5 -4 -6 -11 -3 -17 4 -6 1
-9 -6 -6 -8 2 -20 24 -28 49 -8 24 -18 53 -23 64 -15 39 -21 85 -10 85 6 0 11
5 11 10 0 6 -7 10 -17 8 -17 -3 -38 46 -27 64 10 15 12 58 3 58 -5 0 -6 8 -3
18 3 9 -2 6 -11 -8 -13 -20 -15 -21 -12 -5 3 11 8 29 12 40 l7 20 -17 -20
c-17 -20 -17 -20 -10 4 5 16 4 21 -4 17 -6 -4 -13 5 -16 21 -4 15 -9 39 -13
53 -3 14 -6 30 -6 35 -1 6 -3 12 -6 15 -17 15 -71 226 -64 248 5 13 4 14 -4 4
-12 -18 -26 30 -17 61 4 15 3 18 -3 9 -7 -11 -11 -7 -14 13 -4 18 -2 25 7 22
6 -3 12 1 12 9 0 9 -6 13 -15 9 -8 -3 -12 0 -10 7 3 7 -1 19 -9 26 -7 7 -13
24 -13 36 0 13 -9 49 -19 82 -29 88 -54 203 -48 224 3 11 0 18 -5 17 -6 -1
-17 25 -25 58 -16 68 -48 193 -70 275 -8 30 -18 69 -22 85 -6 25 -37 50 -199
159 -106 71 -195 126 -197 124 -3 -2 7 -46 20 -97 14 -51 27 -105 30 -122 13
-72 37 -179 55 -239 10 -36 24 -92 30 -125 24 -127 256 -1085 290 -1195 11
-36 29 -108 41 -160 11 -52 25 -104 31 -116 5 -12 11 -39 11 -62 1 -22 5 -38
8 -36 4 2 12 -18 19 -44 7 -26 18 -65 25 -87 16 -52 28 -128 15 -100 -7 16 -9
17 -9 3 -1 -9 -5 -20 -11 -23 -7 -4 -7 3 0 20 6 15 10 33 10 42 0 13 -3 13
-15 3 -12 -10 -15 -10 -15 3 0 9 4 18 9 21 11 7 2 54 -12 63 -6 4 -8 -4 -3
-23 5 -21 4 -25 -4 -14 -5 8 -10 23 -10 32 0 10 -3 17 -7 17 -20 -3 -33 2 -33
12 0 8 6 7 17 -2 15 -12 16 -12 9 6 -5 11 -9 28 -10 37 -1 10 -6 21 -11 25 -4
5 -5 3 -1 -4 9 -15 -30 -37 -52 -28 -9 3 -13 3 -9 -1 4 -4 -1 -13 -11 -21 -9
-8 -12 -12 -5 -8 8 4 8 -3 -2 -22 -8 -15 -15 -34 -15 -40 0 -7 -3 -12 -7 -12
-20 3 -26 -2 -13 -11 11 -7 12 -10 2 -10 -8 0 -16 9 -19 20 -3 11 -9 17 -14
14 -5 -3 -9 -1 -9 4 0 5 -11 14 -24 22 l-24 12 31 33 c19 19 36 29 42 24 6 -5
16 0 23 11 7 12 18 17 29 13 11 -4 14 -3 9 5 -4 7 -2 12 6 12 10 0 11 2 0 8
-7 5 -11 15 -9 23 2 8 2 11 0 6 -6 -9 -23 1 -23 14 0 5 7 9 15 9 12 0 13 4 5
19 -16 30 -13 46 5 31 13 -11 15 -8 15 16 0 23 -2 26 -11 14 -8 -12 -9 -9 -5
12 4 16 2 28 -4 28 -5 0 -10 -10 -11 -22 0 -15 -3 -18 -6 -8 -15 37 -52 54
-72 33 -12 -13 -11 -14 7 -9 17 6 19 3 15 -14 -4 -15 -9 -18 -16 -11 -19 19
-28 12 -21 -16 7 -27 6 -28 -13 -11 -23 21 -49 23 -59 6 -5 -7 -2 -9 9 -5 11
4 25 -4 42 -24 23 -28 30 -29 26 -5 -1 5 5 6 14 3 9 -4 15 -1 15 8 0 8 4 15
10 15 5 0 7 -7 4 -15 -4 -8 -1 -15 5 -15 6 0 11 7 11 15 0 8 5 15 10 15 6 0
10 -9 10 -20 0 -11 -4 -20 -8 -20 -4 0 -8 -15 -8 -34 0 -19 3 -33 7 -30 4 2
10 0 14 -6 3 -5 -3 -10 -14 -10 -23 0 -41 22 -23 28 14 4 16 32 3 32 -5 0 -12
-11 -15 -25 -4 -14 -11 -23 -16 -20 -5 3 -11 1 -15 -5 -11 -18 -22 -10 -18 13
3 14 -2 29 -11 36 -10 9 -16 9 -16 3 0 -16 -57 -72 -72 -72 -10 0 -10 -2 0 -9
10 -6 9 -10 -7 -14 -27 -7 -64 43 -58 76 4 18 4 17 6 -6 0 -17 5 -26 12 -22 6
4 8 13 5 21 -5 13 6 18 27 15 4 0 7 3 7 9 0 12 -37 32 -43 22 -2 -4 -2 -1 -1
6 2 6 -1 12 -6 12 -6 0 -10 -8 -10 -17 0 -15 -2 -16 -9 -3 -6 8 -8 18 -5 22 3
4 0 17 -6 28 -6 12 -17 52 -25 91 -11 59 -11 70 1 65 8 -3 11 0 7 10 -3 8 1
14 8 14 10 1 9 4 -3 11 -10 5 -15 17 -12 27 5 14 4 14 -4 2 -8 -10 -8 -18 0
-27 7 -9 7 -13 -1 -13 -19 0 -25 31 -11 53 12 20 24 144 12 132 -6 -5 -13 -55
-14 -97 -1 -15 -5 -25 -10 -21 -6 3 -7 19 -4 36 3 17 3 27 -1 24 -4 -4 -17 34
-30 85 -18 68 -21 98 -14 110 8 12 7 19 -1 24 -7 4 -8 3 -4 -4 4 -7 4 -12 -1
-12 -12 0 -45 182 -38 205 5 14 4 16 -2 7 -7 -9 -13 1 -20 33 -7 32 -7 45 1
45 7 0 7 3 -1 8 -7 5 -20 39 -29 78 -8 38 -22 96 -30 129 -24 101 -85 398 -91
440 -2 22 -7 47 -10 55 -7 19 -7 17 -32 123 -12 48 -21 97 -21 109 0 12 -4 35
-10 52 -5 17 -21 90 -35 161 -14 72 -28 141 -31 155 -3 14 -9 52 -15 84 -13
77 -21 91 -72 123 -23 14 -135 91 -249 170 -189 131 -209 142 -233 133 -31
-12 -55 -13 -55 -2 0 7 74 32 170 58 25 7 84 23 132 37 47 13 97 23 110 20 32
-6 267 97 268 117 0 8 -11 33 -25 55 -35 57 -32 72 15 91 26 11 40 22 40 34 0
11 5 22 10 25 16 10 12 25 -5 19 -10 -4 -15 0 -15 11 0 9 5 13 11 9 8 -5 8 -1
0 14 -15 28 -28 35 -37 21 -4 -7 -3 -9 4 -5 18 11 24 -13 9 -35 -15 -20 -15
-20 -21 -1 -8 24 -54 68 -63 59 -3 -4 2 -13 12 -21 10 -7 15 -18 11 -24 -4 -7
-2 -12 4 -12 6 0 8 -4 5 -10 -8 -14 -34 11 -28 27 6 16 -4 17 -21 1 -11 -11
-11 -15 2 -24 9 -6 12 -16 7 -24 -10 -16 -65 77 -58 98 5 11 1 13 -14 8 -14
-4 -37 2 -66 19 -25 14 -53 25 -61 25 -9 0 -16 4 -16 8 0 5 -6 9 -12 9 -16 0
-135 46 -205 79 -28 13 -54 24 -57 24 -3 0 -66 29 -140 64 -189 91 -294 140
-341 161 -53 23 -406 200 -470 235 -27 15 -77 42 -110 60 -33 18 -93 50 -132
72 -54 30 -80 38 -100 34 -16 -3 -97 -15 -181 -25 l-154 -19 -58 34 c-32 19
-62 34 -67 33 -4 -1 -44 -7 -88 -15z m-2410 -1388 c42 -20 79 -36 81 -36 6 0
253 -124 369 -184 240 -126 326 -172 385 -206 101 -59 311 -173 355 -195 l40
-19 -75 -12 c-104 -17 -128 -22 -140 -29 -5 -3 -49 -12 -97 -20 -49 -8 -116
-21 -150 -28 -44 -10 -65 -11 -72 -4 -6 6 -11 8 -11 5 0 -7 -116 47 -180 83
-40 23 -378 189 -430 212 -19 8 -70 31 -113 51 -43 20 -82 36 -87 36 -5 0 -11
4 -14 9 -4 5 4 7 16 4 20 -4 21 -3 7 9 -9 7 -14 19 -11 27 3 8 0 11 -6 7 -7
-4 -6 8 3 33 7 21 11 42 7 46 -4 3 -7 14 -7 23 0 9 -6 16 -12 15 -7 -2 -13 2
-13 7 0 6 5 10 11 10 8 0 8 5 -1 15 -9 11 -9 15 -1 15 7 0 9 5 5 12 -12 19
-13 68 -1 61 6 -3 7 -1 3 5 -4 7 -14 12 -23 12 -13 0 -13 3 -3 15 7 8 8 15 2
15 -5 0 -12 9 -15 20 -3 11 -1 20 4 20 5 0 9 -5 9 -12 0 -6 3 -8 8 -4 4 5 -8
21 -26 36 l-34 28 70 -23 c38 -13 104 -39 147 -59z m3740 -75 c-12 -11 -309
-95 -375 -106 -79 -13 -31 11 80 39 58 15 143 38 190 51 94 26 119 30 105 16z
m-3895 -161 c0 -5 -4 -10 -10 -10 -5 0 -10 5 -10 10 0 6 5 10 10 10 6 0 10 -4
10 -10z m2400 -177 c-1 -14 -30 -47 -36 -41 -3 3 3 16 13 27 19 23 23 25 23
14z m903 -123 c3 -25 8 -52 11 -60 5 -13 10 -78 32 -360 4 -41 9 -103 13 -137
4 -35 4 -63 1 -63 -13 0 -40 37 -33 44 5 4 3 6 -4 4 -6 -1 -69 42 -139 97
-202 159 -187 142 -192 219 -5 72 4 86 74 120 16 8 44 28 60 43 56 52 97 82
106 77 4 -3 8 2 8 10 0 9 7 16 15 16 8 0 19 9 25 21 15 27 17 23 23 -31z
m-270 -3 c4 3 7 2 7 -4 0 -6 -14 -13 -31 -17 -25 -5 -30 -10 -26 -26 3 -11 1
-18 -4 -14 -13 8 -11 78 3 92 9 9 15 6 28 -13 9 -14 20 -22 23 -18z m-1033 24
c0 -5 -8 -11 -17 -14 -10 -2 -27 -8 -38 -11 -11 -4 -4 2 15 13 41 24 40 23 40
12z m243 -6 c-3 -9 -8 -14 -10 -11 -3 3 -2 9 2 15 9 16 15 13 8 -4z m-30 -22
c-7 -2 -19 -2 -25 0 -7 3 -2 5 12 5 14 0 19 -2 13 -5z m-468 -93 c-3 -5 -12
-10 -18 -10 -7 0 -6 4 3 10 19 12 23 12 15 0z m-90 -40 c-3 -5 -16 -15 -28
-21 -21 -10 -21 -9 2 10 25 23 36 27 26 11z m890 -68 c-6 -4 -18 -20 -28 -35
-10 -15 -22 -25 -27 -22 -5 3 -18 1 -29 -5 -21 -11 -34 -1 -23 17 4 6 27 20
52 31 46 21 74 28 55 14z m-120 -18 c-11 -8 -19 -19 -18 -24 1 -4 -11 -13 -27
-20 -16 -7 -27 -17 -23 -23 3 -6 1 -7 -6 -3 -6 4 -9 12 -6 17 4 5 -1 9 -9 9
-8 0 -18 6 -22 13 -4 6 -4 9 0 5 5 -4 19 -3 32 2 19 8 22 6 17 -8 -4 -10 8 -4
30 16 21 17 41 32 45 32 4 0 -2 -8 -13 -16z m-120 -84 c-3 -5 -11 -10 -16 -10
-6 0 -7 5 -4 10 3 6 11 10 16 10 6 0 7 -4 4 -10z m-2065 -117 c0 -5 -21 -21
-46 -37 l-45 -29 20 -19 c12 -10 21 -27 21 -38 0 -10 5 -30 11 -43 8 -18 8
-30 1 -43 -9 -16 -11 -15 -10 12 1 16 -11 53 -25 81 l-25 51 21 20 c22 18 69
52 74 52 2 0 3 -3 3 -7z m1268 -73 c-7 -10 -14 -17 -17 -15 -4 4 18 35 25 35
2 0 -1 -9 -8 -20z m-39 -59 c-5 -9 -23 -32 -39 -51 l-31 -35 3 58 c3 55 10 69
23 47 4 -6 12 -4 22 6 12 12 18 13 24 3 4 -7 3 -20 -2 -28z m3372 -1218 c13
-16 12 -17 -3 -4 -10 7 -18 15 -18 17 0 8 8 3 21 -13z m-2690 -202 c-7 -11
-16 -21 -21 -21 -13 0 -13 17 0 25 6 4 8 16 4 28 -6 21 -5 21 11 6 14 -13 15
-21 6 -38z m3489 -36 c0 -8 -4 -15 -10 -15 -5 0 -10 7 -10 15 0 8 5 15 10 15
6 0 10 -7 10 -15z m-3480 -62 c-1 -15 -40 -58 -40 -44 0 11 -3 11 -15 1 -13
-11 -13 -15 -3 -21 15 -10 6 -12 -16 -3 -16 6 -23 35 -8 33 20 -3 32 2 26 12
-4 8 -9 7 -16 -2 -8 -12 -9 -12 -6 0 2 8 12 15 22 17 10 1 20 5 24 8 8 9 32 7
32 -1z m-90 -23 c0 -5 -4 -10 -10 -10 -5 0 -10 5 -10 10 0 6 5 10 10 10 6 0
10 -4 10 -10z m-80 -20 c0 -5 -4 -10 -10 -10 -5 0 -10 5 -10 10 0 6 5 10 10
10 6 0 10 -4 10 -10z m-218 -8 c-7 -5 -10 -17 -7 -28 6 -17 6 -18 -5 -1 -12
19 -6 37 13 37 9 0 8 -3 -1 -8z m276 -4 c-3 -7 -13 -15 -24 -17 -16 -3 -17 -1
-5 13 16 19 34 21 29 4z m-212 -13 c-13 -10 -15 -15 -6 -15 7 0 11 -3 7 -6 -3
-3 -16 1 -27 9 l-22 15 28 5 c16 2 31 5 34 5 3 1 -4 -5 -14 -13z m168 -13 c2
-4 -5 -9 -17 -9 -17 -2 -19 0 -7 7 18 12 18 12 24 2z m78 -41 c-15 -20 -30
-37 -34 -39 -5 -2 -8 -12 -8 -22 0 -10 -15 -35 -34 -54 -18 -20 -30 -36 -25
-36 5 0 -6 -20 -23 -45 -17 -25 -34 -43 -36 -40 -3 2 1 11 8 20 7 8 9 15 4 15
-5 0 2 7 14 16 12 8 22 20 22 26 0 7 -6 6 -17 -2 -10 -7 -6 -1 9 13 15 14 24
28 20 33 -4 4 -1 3 7 -1 11 -6 13 -4 8 9 -4 10 -3 15 3 11 6 -3 10 0 10 9 0 8
6 16 13 19 8 3 5 14 -11 36 -13 18 -21 35 -19 38 3 2 13 -7 22 -21 15 -22 19
-23 31 -11 18 18 18 29 0 22 -8 -3 -20 1 -26 9 -9 10 -9 14 -1 14 6 0 11 -6
11 -12 0 -9 4 -8 10 2 8 12 11 13 19 1 6 -10 10 -10 16 -1 4 7 2 16 -5 20 -7
5 -2 8 13 8 l26 0 -27 -37z m-241 -15 c8 -19 8 -18 -7 2 -19 25 -39 30 -30 7
7 -20 4 -19 -18 7 -15 18 -16 20 -2 15 9 -4 16 -1 16 5 0 15 29 -10 41 -36z
m3694 14 c3 -5 1 -10 -4 -10 -6 0 -11 5 -11 10 0 6 2 10 4 10 3 0 8 -4 11 -10z
m-3724 -35 c12 0 24 -6 27 -14 3 -9 -2 -11 -19 -7 -13 3 -18 3 -11 0 6 -3 10
-10 7 -15 -4 -5 -12 -3 -19 4 -8 6 -12 15 -9 20 2 4 -1 7 -6 7 -6 0 -11 8 -11
18 0 14 2 15 10 2 5 -8 19 -15 31 -15z m899 1 c0 -1 -13 -3 -30 -3 -23 0 -27
3 -19 13 8 10 16 11 30 3 10 -5 19 -11 19 -13z m2805 15 c3 -5 0 -13 -6 -17
-7 -4 -9 -3 -5 4 3 5 0 13 -6 15 -9 4 -10 6 -1 6 6 1 14 -3 18 -8z m-2825 -41
c0 -5 -4 -10 -10 -10 -5 0 -10 5 -10 10 0 6 5 10 10 10 6 0 10 -4 10 -10z
m2870 -47 c0 -8 -38 17 -51 33 -9 11 -2 9 19 -6 17 -13 32 -25 32 -27z m-2872
6 c-2 -6 -8 -10 -13 -10 -5 0 -11 4 -13 10 -2 6 4 11 13 11 9 0 15 -5 13 -11z
m-78 -69 c0 -5 -5 -10 -11 -10 -5 0 -7 5 -4 10 3 6 8 10 11 10 2 0 4 -4 4 -10z
m30 0 c0 -5 -2 -10 -4 -10 -3 0 -8 5 -11 10 -3 6 -1 10 4 10 6 0 11 -4 11 -10z
m3110 -4 c0 -8 -5 -18 -12 -22 -7 -5 -8 -3 -3 6 4 7 2 16 -6 21 -11 7 -10 9 4
9 9 0 17 -6 17 -14z m-3876 -24 c2 -4 -5 -9 -17 -9 -17 -2 -19 0 -7 7 18 12
18 12 24 2z m3916 -12 c-8 -5 -17 -7 -19 -4 -3 3 1 9 9 14 8 5 17 7 19 4 3 -3
-1 -9 -9 -14z m-3909 -41 c-5 -13 -10 -19 -10 -12 -1 6 -10 10 -21 8 -12 -2
-20 2 -20 9 0 8 10 12 25 11 14 -2 25 2 25 8 0 5 2 8 5 5 3 -3 1 -16 -4 -29z
m689 -5 c0 -8 -9 -14 -19 -14 -11 0 -22 -6 -24 -12 -4 -10 -6 -10 -6 0 -1 8 8
16 18 19 13 3 18 10 14 21 -4 10 -2 13 5 8 7 -4 12 -14 12 -22z m-165 -22
c-13 -9 -16 -74 -3 -66 5 3 4 -3 -3 -14 -9 -15 -17 -18 -25 -11 -9 7 -14 5
-17 -8 -4 -17 -5 -17 -6 0 0 10 6 20 14 23 8 4 15 10 15 15 0 6 -8 6 -19 0
-10 -6 -21 -8 -24 -4 -4 3 -12 -6 -18 -21 -7 -14 -16 -26 -21 -26 -7 0 13 36
69 129 14 22 16 22 31 7 11 -10 13 -19 7 -24z m-555 -36 c0 -12 -5 -7 -19 24
-11 24 -11 24 3 6 9 -11 16 -24 16 -30z m794 8 c3 -8 2 -12 -4 -9 -6 3 -10 10
-10 16 0 14 7 11 14 -7z m-184 -24 c0 -6 7 -10 16 -8 10 2 19 -3 22 -11 2 -8
0 -11 -6 -7 -6 4 -8 -3 -6 -16 l5 -23 -12 23 c-7 12 -19 22 -27 22 -12 0 -11
-5 6 -20 26 -25 28 -45 6 -54 -12 -5 -15 -2 -10 10 8 22 -14 50 -25 32 -17
-27 -19 1 -2 31 18 31 33 40 33 21z m100 -31 c0 -6 -7 -9 -15 -5 -9 3 -15 0
-15 -10 0 -8 5 -12 10 -9 11 7 12 -11 2 -37 -5 -13 -11 -15 -22 -8 -12 8 -13
11 -1 19 8 5 9 11 3 15 -6 3 -12 0 -15 -6 -7 -21 -17 -4 -11 19 6 20 20 29 52
32 6 0 12 -4 12 -10z m128 -7 c2 -7 -1 -12 -8 -12 -6 0 -9 4 -6 9 4 5 1 12 -4
14 -6 3 -5 4 2 3 6 -1 14 -8 16 -14z m-33 -2 c3 -5 -1 -10 -10 -10 -9 0 -13 5
-10 10 3 6 8 10 10 10 2 0 7 -4 10 -10z m-43 -10 c6 0 6 -6 -2 -15 -7 -8 -18
-15 -26 -15 -7 0 -16 -4 -19 -10 -4 -7 3 -7 20 0 33 12 38 13 30 1 -3 -6 2
-14 11 -19 13 -7 14 -11 4 -17 -8 -5 -16 -1 -22 9 -13 23 -31 20 -23 -4 4 -11
2 -20 -4 -20 -16 0 -33 40 -25 58 7 17 10 26 13 38 0 3 8 3 17 0 9 -3 20 -6
26 -6z m-256 -54 c-3 -11 0 -26 6 -33 8 -10 6 -13 -11 -13 -11 0 -21 -5 -21
-11 0 -8 -5 -7 -15 1 -9 7 -18 10 -22 6 -3 -3 0 -6 7 -6 9 0 7 -5 -5 -14 -11
-8 -25 -12 -32 -9 -8 3 -13 -2 -13 -12 0 -15 -3 -15 -15 -5 -14 11 -14 10 -6
-13 8 -21 7 -25 -4 -20 -8 3 -15 10 -15 16 0 6 -3 8 -6 5 -3 -4 -1 -15 5 -26
9 -16 7 -19 -9 -18 -11 0 -20 -2 -20 -6 -1 -24 1 -28 11 -28 5 0 8 4 5 8 -2 4
7 7 21 6 23 -1 78 -54 56 -54 -4 0 -14 9 -21 20 -7 11 -20 20 -30 19 -10 0
-12 -3 -4 -6 23 -9 12 -20 -18 -18 -32 2 -40 -9 -15 -19 8 -3 15 -2 15 2 0 16
47 9 58 -9 8 -12 8 -19 2 -19 -5 0 -10 4 -10 9 0 16 -48 6 -60 -12 -10 -17 -9
-18 11 -12 14 5 19 4 15 -4 -12 -19 -39 -12 -63 17 -12 15 -22 22 -23 15 0 -6
7 -18 15 -27 13 -13 12 -17 -13 -36 -15 -12 -20 -18 -12 -14 8 4 23 14 33 22
15 14 17 13 17 -3 0 -14 3 -15 14 -6 10 8 16 9 21 1 3 -5 12 -10 18 -10 7 0 6
4 -3 10 -8 5 -11 13 -6 17 4 4 15 -2 23 -14 22 -33 63 -75 63 -65 0 4 -9 18
-21 30 -11 12 -17 27 -13 33 4 8 9 7 15 -2 7 -11 9 -10 9 5 0 31 74 -74 75
-106 1 -31 -5 -34 -23 -16 -17 17 -15 -4 4 -30 9 -13 14 -25 11 -28 -2 -3 -12
7 -21 21 -19 29 -38 32 -57 9 -7 -9 -22 -14 -36 -11 -16 3 -23 0 -23 -12 -1
-14 -2 -14 -14 2 -12 15 -14 15 -19 2 -4 -8 -17 -14 -31 -13 -13 1 -22 6 -19
11 3 5 12 6 20 3 8 -3 11 -1 8 5 -4 5 -15 7 -25 4 -12 -4 -19 1 -23 15 -3 11
-11 20 -19 20 -9 0 -9 -3 -2 -8 12 -7 29 -52 26 -65 -1 -4 8 -5 20 -2 13 3 41
7 64 9 22 2 52 9 65 15 21 11 22 10 7 -2 -14 -11 -15 -16 -5 -26 9 -9 9 -14
-3 -21 -8 -5 -18 -6 -22 -4 -4 3 -8 -1 -9 -8 0 -10 -2 -10 -6 1 -4 11 -7 11
-13 0 -7 -10 -11 -10 -24 1 -14 11 -16 10 -10 -5 4 -10 1 -21 -7 -27 -10 -6
-7 -7 10 -3 16 5 21 4 17 -4 -9 -13 4 -14 24 -1 10 6 21 4 34 -8 18 -16 18
-16 7 6 -16 30 -6 42 14 16 14 -18 14 -17 5 8 -6 18 -6 29 0 33 15 9 30 -4 30
-26 0 -12 7 -19 19 -19 11 0 23 -9 26 -20 8 -26 -31 -105 -62 -125 -13 -9 -21
-20 -17 -26 5 -9 -40 -89 -51 -89 -3 0 -5 7 -5 16 0 8 5 12 10 9 6 -3 10 -1
10 5 0 7 -8 9 -19 5 -11 -3 -22 -1 -26 5 -5 8 -11 8 -21 -1 -11 -9 -14 -9 -14
0 0 7 -4 9 -10 6 -5 -3 -10 3 -10 14 0 11 -4 22 -9 25 -5 3 -11 15 -14 27 -4
15 -2 19 8 15 9 -3 12 0 8 10 -6 16 -6 16 -27 8 -9 -3 -16 -13 -16 -21 0 -9
-11 -2 -28 17 -19 20 -34 29 -45 24 -19 -7 -22 -20 -6 -29 6 -4 8 -13 5 -21
-3 -8 0 -14 6 -14 7 0 7 -4 0 -13 -8 -9 -6 -22 5 -45 8 -17 19 -32 23 -32 4 0
11 -7 14 -16 4 -10 2 -13 -7 -8 -6 4 4 -7 23 -24 19 -17 30 -31 24 -32 -5 0
-15 5 -22 12 -7 7 -12 9 -12 6 0 -4 8 -14 17 -24 16 -16 16 -16 -5 -10 -16 5
-22 3 -22 -7 0 -20 -30 -45 -31 -26 -1 32 -10 95 -14 107 -2 6 1 12 8 12 9 0
9 2 0 8 -11 7 -24 51 -38 129 -3 18 -10 44 -15 59 -6 15 -8 29 -5 32 9 9 35
-32 30 -47 -4 -10 1 -9 20 3 24 16 26 16 32 -1 4 -10 13 -24 21 -32 12 -12 17
-10 40 15 15 16 20 23 12 16 -7 -6 -18 -12 -22 -12 -10 0 -11 32 -2 55 6 14
11 12 37 -12 16 -15 27 -23 23 -16 -3 6 -2 14 4 18 6 4 7 12 0 24 -6 12 -5 22
2 29 12 12 -47 10 -115 -3 -32 -7 -40 -4 -57 15 -22 25 -26 35 -10 25 6 -3 16
-3 22 2 7 4 24 6 38 5 30 -3 66 20 56 36 -4 7 -17 17 -29 23 -18 9 -20 9 -9
-2 21 -23 13 -31 -10 -9 -19 17 -24 18 -26 6 -2 -9 -9 -13 -19 -9 -13 5 -15 2
-10 -12 6 -14 5 -16 -6 -7 -10 9 -17 8 -27 -1 -15 -14 11 33 45 78 12 17 41
66 65 110 58 107 63 115 77 115 7 0 10 6 7 14 -3 8 3 20 13 27 10 8 18 19 18
24 0 6 11 29 24 51 17 31 30 42 48 42 32 0 73 22 73 39 0 17 -21 17 -46 -2
-27 -20 -37 -18 -24 5 6 11 20 20 30 20 11 0 20 5 20 12 0 6 9 3 21 -8 12 -11
18 -26 15 -38z m64 13 c0 -5 5 -7 10 -4 6 3 10 2 10 -2 0 -5 -10 -14 -21 -22
-19 -11 -21 -11 -16 4 4 9 3 14 -3 10 -11 -7 -14 8 -3 18 10 10 23 8 23 -4z
m237 -21 c-3 -8 -6 -5 -6 6 -1 11 2 17 5 13 3 -3 4 -12 1 -19z m-352 2 c3 -5
-1 -10 -10 -10 -9 0 -13 5 -10 10 3 6 8 10 10 10 2 0 7 -4 10 -10z m79 -11
c-3 -5 -10 -7 -15 -3 -5 3 -7 10 -3 15 3 5 10 7 15 3 5 -3 7 -10 3 -15z m124
3 c2 -7 -1 -12 -8 -12 -6 0 -9 4 -6 9 4 5 1 12 -4 14 -6 3 -5 4 2 3 6 -1 14
-8 16 -14z m-75 -34 c4 -10 8 -9 16 2 10 13 12 13 21 0 8 -12 10 -13 10 -1 0
8 2 12 5 9 3 -3 2 -13 -1 -22 -5 -14 -9 -15 -15 -4 -8 11 -11 11 -18 -1 -8
-12 -12 -12 -25 2 -9 8 -16 18 -16 21 0 11 18 6 23 -6z m107 8 c0 -2 -9 -6
-20 -9 -11 -3 -18 -1 -14 4 5 9 34 13 34 5z m-126 -42 c3 -8 2 -12 -4 -9 -6 3
-10 10 -10 16 0 14 7 11 14 -7z m161 -14 c8 -13 -4 -50 -16 -50 -6 0 -8 4 -4
9 3 6 -3 14 -12 20 -10 5 -15 12 -12 16 4 3 14 -1 23 -10 9 -9 16 -13 16 -8 0
5 -5 14 -12 21 -9 9 -9 12 -1 12 7 0 15 -5 18 -10z m-65 -20 c0 -5 -5 -10 -11
-10 -5 0 -7 5 -4 10 3 6 8 10 11 10 2 0 4 -4 4 -10z m110 1 c0 -5 -7 -12 -16
-15 -14 -5 -15 -4 -4 9 14 17 20 19 20 6z m-150 -21 c0 -5 -4 -10 -9 -10 -6 0
-13 5 -16 10 -3 6 1 10 9 10 9 0 16 -4 16 -10z m-73 -13 c6 -4 13 -1 16 5 2 7
8 9 13 5 5 -4 2 -12 -5 -16 -17 -11 2 -23 23 -15 9 3 16 1 16 -6 0 -7 8 -9 19
-5 14 4 22 -2 32 -25 8 -16 17 -30 21 -30 5 0 8 -4 8 -8 0 -11 -39 -13 -45 -1
-3 5 1 6 11 2 14 -5 15 -3 5 15 -13 25 -30 37 -39 27 -3 -3 0 -10 8 -15 13 -8
12 -10 -2 -10 -10 0 -18 7 -18 16 0 9 -6 14 -13 11 -8 -3 -20 3 -28 14 -9 12
-20 17 -34 13 -16 -4 -17 -3 -5 5 13 9 13 11 -2 11 -10 0 -18 4 -18 9 0 10 19
9 37 -2z m128 3 c-3 -5 -14 -10 -23 -10 -15 0 -15 2 -2 10 20 13 33 13 25 0z
m740 -6 c19 -15 19 -15 -9 -8 -19 4 -31 2 -37 -7 -4 -7 -12 -10 -16 -5 -4 4 1
14 11 22 24 17 26 17 51 -2z m-990 -14 c3 -6 -1 -7 -9 -4 -18 7 -21 14 -7 14
6 0 13 -4 16 -10z m41 -7 c21 -28 16 -39 -6 -15 -11 12 -20 24 -20 27 0 11 13
4 26 -12z m260 5 c-8 -5 -13 -15 -10 -23 4 -8 1 -15 -6 -15 -6 0 -8 -4 -5 -10
3 -5 14 -10 23 -10 13 0 14 2 3 9 -9 6 -10 11 -2 15 6 4 8 13 4 19 -4 7 0 6
10 -2 22 -18 22 -19 -15 -77 -18 -27 -32 -52 -33 -55 0 -4 -12 -23 -27 -44
-25 -35 -27 -36 -37 -17 -16 30 -13 39 5 16 15 -18 15 -18 10 4 -3 17 -1 22 9
18 8 -3 17 6 23 23 5 15 17 35 26 44 16 15 15 18 -3 36 -31 31 -54 80 -31 66
6 -3 10 -2 10 3 0 5 14 9 31 9 22 0 26 -3 15 -9z m748 0 c-3 -4 -11 -5 -19 -1
-21 7 -19 12 4 10 11 0 18 -5 15 -9z m-967 -4 c-3 -3 -12 -4 -19 -1 -8 3 -5 6
6 6 11 1 17 -2 13 -5z m913 -15 c0 -6 9 -8 20 -4 11 3 20 2 20 -3 0 -6 -6 -12
-12 -15 -10 -3 -10 -7 1 -20 7 -10 9 -17 3 -17 -5 0 -19 16 -31 35 -11 19 -16
35 -11 35 6 0 10 -5 10 -11z m80 -9 c0 -5 -4 -10 -10 -10 -5 0 -10 5 -10 10 0
6 5 10 10 10 6 0 10 -4 10 -10z m83 -31 c19 -16 19 -16 -8 -23 -21 -5 -26 -12
-22 -26 3 -11 1 -18 -3 -15 -5 3 -11 -1 -14 -7 -3 -10 -8 -9 -15 3 -7 11 -22
15 -45 14 -26 -3 -33 0 -30 10 3 7 12 16 20 19 10 4 12 2 8 -6 -5 -7 1 -9 19
-6 15 3 28 0 31 -6 3 -7 8 -6 15 4 5 8 7 18 4 23 -3 4 -2 20 2 35 5 18 9 22
12 12 3 -8 14 -22 26 -31z m-1118 11 c3 -5 1 -10 -4 -10 -6 0 -11 5 -11 10 0
6 2 10 4 10 3 0 8 -4 11 -10z m768 -7 c-9 -3 -9 -12 -2 -29 12 -34 31 -52 48
-46 8 3 18 -3 23 -12 5 -9 14 -14 19 -11 5 4 7 10 4 15 -3 4 2 10 10 14 16 6
10 36 -7 36 -6 0 -8 -7 -4 -15 4 -11 -2 -15 -20 -15 -14 0 -23 4 -20 9 3 5 -1
11 -9 15 -9 3 -12 12 -8 21 4 13 8 14 14 4 6 -10 13 -8 35 6 23 15 26 15 21 2
-4 -12 -2 -14 10 -10 10 4 14 2 10 -4 -3 -5 0 -10 8 -10 8 0 12 4 9 9 -3 4 -1
8 5 8 5 0 13 -5 16 -10 4 -6 15 -8 26 -5 11 4 19 2 19 -4 0 -6 -5 -11 -10 -11
-7 0 -6 -8 2 -22 7 -13 11 -26 10 -30 -1 -4 7 -10 18 -13 21 -7 28 -25 10 -25
-5 0 -10 -5 -10 -11 0 -6 9 -8 22 -3 21 6 21 6 5 -10 -15 -15 -18 -15 -42 6
-14 12 -25 26 -25 32 0 6 5 5 12 -2 14 -14 28 -16 28 -3 0 14 -32 23 -44 11
-7 -7 -6 -14 2 -22 17 -17 15 -28 -5 -21 -11 4 -14 3 -9 -5 4 -7 2 -12 -3 -12
-6 0 -11 7 -11 15 0 8 -6 15 -12 16 -7 0 -4 4 7 9 19 8 19 9 -2 9 -29 1 -29
-2 2 -47 18 -26 25 -31 25 -18 0 15 3 16 15 6 13 -11 15 -10 9 6 -3 12 6 6 25
-15 17 -19 34 -32 37 -28 4 4 13 2 21 -5 7 -6 17 -7 21 -3 4 4 1 10 -6 12 -6
3 -9 9 -6 14 3 6 12 5 21 -3 14 -11 15 -10 8 11 -4 15 -3 21 3 17 5 -3 13 4
17 17 6 17 8 19 12 6 2 -9 -8 -37 -22 -63 -14 -25 -23 -46 -19 -46 4 0 0 -8
-9 -18 -9 -9 -34 -54 -57 -99 -44 -88 -57 -95 -85 -44 -10 18 -14 21 -15 9 0
-11 -5 -15 -15 -12 -10 4 -12 10 -6 18 13 16 17 59 7 75 -6 9 -5 12 2 7 6 -3
13 -2 17 4 3 5 -2 10 -12 11 -10 0 -13 3 -6 6 9 3 8 11 -5 31 -9 14 -12 23 -5
19 8 -5 11 -1 10 13 -1 11 -6 20 -12 20 -5 0 -1 7 9 15 11 8 14 15 7 15 -7 0
-10 4 -7 8 3 5 -3 14 -14 22 -14 10 -16 18 -9 36 6 17 5 23 -4 21 -19 -3 -27
-20 -21 -42 6 -19 5 -19 -12 -2 -16 15 -17 19 -5 26 12 8 12 12 -3 26 -9 10
-20 15 -23 12 -3 -4 -15 -1 -27 5 -19 10 -20 10 -7 -6 11 -13 11 -20 3 -28 -9
-9 -12 -9 -12 1 0 8 -6 11 -16 7 -9 -4 -24 -1 -33 6 -14 11 -14 11 -3 -4 10
-12 10 -17 1 -20 -9 -3 -9 -9 0 -26 14 -26 9 -28 -14 -6 -13 14 -19 14 -28 4
-7 -7 -7 -10 -2 -8 6 3 16 -1 24 -9 12 -13 11 -14 -7 -9 -21 7 -25 -6 -8 -32
4 -7 5 -20 2 -29 -6 -14 -9 -14 -29 3 -12 10 -19 15 -15 11 7 -9 -30 -52 -38
-44 -3 3 5 20 18 39 13 18 32 54 43 78 11 25 28 54 37 64 10 10 15 22 13 26
-3 4 2 13 10 20 8 7 15 18 15 24 0 18 22 36 34 29 7 -5 6 -8 -1 -10z m401 -14
c-3 -5 -10 -7 -15 -3 -5 3 -7 10 -3 15 3 5 10 7 15 3 5 -3 7 -10 3 -15z
m-1084 -24 c-7 -8 -8 -20 -4 -27 5 -9 3 -9 -10 1 -15 13 -16 15 -1 23 8 5 12
14 9 20 -4 7 -2 8 5 4 9 -6 9 -11 1 -21z m90 -10 c0 -21 -5 -19 -25 11 -16 25
-16 25 4 14 12 -6 21 -17 21 -25z m1525 25 c3 -5 1 -10 -4 -10 -6 0 -11 5 -11
10 0 6 2 10 4 10 3 0 8 -4 11 -10z m-1570 -8 c6 -4 15 -16 21 -27 7 -11 21
-20 33 -19 30 1 26 -21 -4 -22 -14 -1 -25 4 -25 11 0 16 -28 40 -37 31 -3 -3
2 -15 12 -26 10 -11 13 -20 8 -20 -6 0 -18 11 -27 25 -19 29 -20 39 -4 29 8
-5 9 -2 5 9 -7 18 1 22 18 9z m-42 -56 c7 5 6 0 -3 -10 -13 -16 -12 -18 5 -16
35 4 45 0 45 -16 0 -14 -2 -15 -17 -3 -13 11 -17 11 -20 1 -3 -6 -10 -9 -16
-5 -6 4 -8 0 -4 -10 3 -10 3 -17 -1 -17 -11 1 -44 50 -33 50 5 0 11 -6 14 -12
2 -7 7 -10 11 -7 11 10 -6 40 -20 35 -8 -3 -11 0 -8 8 3 7 -3 19 -12 27 -15
13 -16 11 -9 -11 6 -19 5 -22 -5 -14 -7 8 -9 21 -5 35 8 23 8 23 37 -9 17 -20
33 -30 41 -26z m1037 33 c0 -5 -4 -9 -10 -9 -5 0 -10 7 -10 16 0 8 5 12 10 9
6 -3 10 -10 10 -16z m577 5 c-3 -3 -12 -4 -19 -1 -8 3 -5 6 6 6 11 1 17 -2 13
-5z m-1762 -15 c11 -17 -1 -21 -15 -4 -8 9 -8 15 -2 15 6 0 14 -5 17 -11z
m1105 -10 c0 -7 -26 -19 -41 -19 -5 0 -9 6 -9 13 0 6 11 12 25 12 14 0 25 -3
25 -6z m-268 -51 c6 6 19 12 27 12 12 0 12 -3 3 -12 -16 -16 -15 -28 3 -28 15
0 35 -30 35 -52 -1 -7 -7 -1 -15 13 -11 21 -21 26 -44 24 -21 -2 -28 1 -24 11
4 10 -3 14 -23 14 -26 0 -27 1 -8 14 14 11 21 11 26 3 5 -9 10 -9 20 1z m287
-5 c0 -11 -3 -13 -6 -5 -2 6 -9 10 -14 6 -5 -3 -9 0 -9 5 0 6 7 11 15 11 8 0
15 -8 14 -17z m-959 -63 c24 -24 14 -27 -12 -3 -10 9 -18 11 -18 6 0 -6 7 -16
15 -23 8 -7 15 -21 15 -32 0 -10 5 -16 10 -13 6 4 8 11 5 16 -4 5 0 9 9 9 23
0 25 24 3 36 -18 10 -17 11 12 10 17 0 31 -2 31 -4 0 -13 -55 -84 -72 -93 -13
-7 -26 -17 -30 -23 -6 -8 -8 -8 -8 0 0 7 -11 9 -25 6 -18 -3 -25 0 -25 12 0
15 13 19 63 19 23 0 22 33 -3 59 -15 17 -17 24 -8 30 17 10 15 11 38 -12z
m714 -13 c3 -12 3 -23 1 -26 -3 -2 -5 2 -5 10 0 12 -2 11 -11 -1 -9 -12 -10
-11 -6 7 5 20 2 22 -21 17 -25 -5 -26 -4 -9 10 23 18 43 12 51 -17z m226 13
c-24 -15 -36 -11 -14 4 10 8 21 12 24 10 2 -3 -2 -9 -10 -14z m-312 -24 c-7
-8 -15 -12 -17 -11 -5 6 10 25 20 25 5 0 4 -6 -3 -14z m-728 -36 c0 -5 -5 -10
-11 -10 -5 0 -7 5 -4 10 3 6 8 10 11 10 2 0 4 -4 4 -10z m786 -15 c3 -14 10
-25 15 -25 6 0 5 -8 -1 -19 -13 -25 -13 -34 0 -26 5 3 14 -9 19 -27 5 -18 10
-26 10 -18 1 13 2 13 11 0 9 -13 10 -13 10 0 0 13 1 13 10 0 7 -11 10 -11 10
-2 0 7 5 10 10 7 15 -9 12 -25 -5 -25 -12 0 -13 -4 -7 -17 11 -21 -1 -61 -21
-69 -30 -11 -82 -9 -79 4 1 6 -5 12 -13 12 -8 0 -15 5 -15 10 0 6 8 10 18 10
12 0 14 3 4 8 -9 6 -5 12 13 22 14 8 23 20 21 27 -3 7 -1 13 4 13 18 0 10 18
-10 23 -12 3 -20 14 -20 25 0 11 -6 23 -12 25 -9 4 -10 8 -3 14 12 9 13 23 2
41 -5 8 -3 12 7 12 9 0 18 -11 22 -25z m-99 -1 c-3 -3 -12 -4 -19 -1 -8 3 -5
6 6 6 11 1 17 -2 13 -5z m163 -8 c0 -11 -19 -15 -25 -6 -3 5 1 10 9 10 9 0 16
-2 16 -4z m-765 -56 c-15 -28 -16 -29 -35 -13 -25 22 -26 36 -1 28 11 -3 22
-1 26 5 15 24 24 7 10 -20z m485 -10 c-14 -10 -21 -22 -17 -26 4 -4 7 -2 7 4
0 7 5 12 10 12 18 0 10 -19 -11 -25 -12 -4 -18 -13 -15 -20 3 -9 0 -12 -10 -8
-10 4 -12 0 -7 -13 4 -12 3 -15 -5 -10 -7 4 -12 2 -12 -3 0 -6 -5 -11 -11 -11
-6 0 0 15 13 33 13 17 23 34 22 37 0 3 8 20 19 38 15 25 23 30 31 22 8 -8 4
-16 -14 -30z m90 -60 c0 -5 -4 -10 -10 -10 -5 0 -10 5 -10 10 0 6 5 10 10 10
6 0 10 -4 10 -10z m256 -55 c-11 -8 -25 -15 -30 -15 -6 0 -2 7 8 15 11 8 25
15 30 15 6 0 2 -7 -8 -15z m-416 -15 c-7 -4 -10 -13 -6 -19 5 -7 1 -9 -9 -5
-11 5 -14 2 -9 -10 3 -9 4 -16 1 -16 -3 0 -7 6 -10 14 -7 18 21 58 35 50 7 -4
6 -9 -2 -14z m207 -34 c9 -5 11 -2 6 9 -5 15 -3 15 16 4 21 -14 21 -14 -11
-25 -32 -11 -54 -2 -42 18 3 4 0 8 -5 8 -6 0 -11 5 -11 12 0 7 6 6 18 -4 9 -8
23 -18 29 -22z m-157 4 c0 -5 -2 -10 -4 -10 -3 0 -8 5 -11 10 -3 6 -1 10 4 10
6 0 11 -4 11 -10z m118 -27 c2 -7 -3 -14 -12 -14 -22 -2 -32 -5 -93 -29 -15
-6 -23 -5 -27 6 -3 8 1 15 9 15 8 1 20 3 25 4 6 1 19 3 31 4 13 1 19 6 16 14
-3 9 4 13 21 12 14 0 27 -6 30 -12z m-211 1 c-11 -11 28 -44 53 -44 20 -1 18
-4 -15 -16 -22 -8 -48 -16 -57 -17 -10 -2 -20 -6 -24 -10 -4 -3 -11 -4 -15 -1
-12 7 43 94 59 94 3 0 3 -3 -1 -6z m-612 -54 c3 -6 -1 -7 -9 -4 -18 7 -21 14
-7 14 6 0 13 -4 16 -10z m40 0 c3 -5 1 -10 -4 -10 -6 0 -11 5 -11 10 0 6 2 10
4 10 3 0 8 -4 11 -10z m25 -44 c0 -3 -4 -8 -10 -11 -5 -3 -10 -1 -10 4 0 6 5
11 10 11 6 0 10 -2 10 -4z m-40 -56 c0 -5 -5 -10 -11 -10 -5 0 -7 5 -4 10 3 6
8 10 11 10 2 0 4 -4 4 -10z m-35 -40 c3 -5 1 -10 -4 -10 -6 0 -11 5 -11 10 0
6 2 10 4 10 3 0 8 -4 11 -10z"/>
<path d="M1291 4414 c0 -11 3 -14 6 -6 3 7 2 16 -1 19 -3 4 -6 -2 -5 -13z"/>
<path d="M3680 3876 c0 -2 8 -10 18 -17 15 -13 16 -12 3 4 -13 16 -21 21 -21
13z"/>
<path d="M2521 2311 c-8 -5 -9 -11 -3 -15 5 -3 12 1 16 9 6 17 6 18 -13 6z"/>
<path d="M2765 1912 c4 -8 -1 -19 -11 -27 -11 -8 -14 -15 -7 -15 6 0 15 5 19
11 4 8 9 7 15 -2 5 -8 9 -9 9 -3 0 5 -7 19 -16 30 -8 10 -12 13 -9 6z"/>
<path d="M2540 1554 c0 -17 23 -44 38 -44 14 1 14 4 -5 19 -12 10 -19 21 -16
25 4 3 1 6 -5 6 -7 0 -12 -3 -12 -6z"/>
<path d="M2510 1501 c0 -6 4 -13 10 -16 6 -3 7 1 4 9 -7 18 -14 21 -14 7z"/>
<path d="M2550 1440 c0 -4 8 -14 17 -21 11 -10 14 -10 9 -1 -4 7 -1 12 8 12 9
0 16 -6 16 -12 0 -9 3 -9 9 1 5 8 16 11 26 8 10 -4 14 -3 9 4 -3 6 -15 9 -25
6 -11 -3 -19 -2 -19 1 0 4 -11 8 -25 8 -14 1 -25 -2 -25 -6z"/>
<path d="M2526 1431 c-4 -5 -2 -12 3 -15 5 -4 12 -2 15 3 4 5 2 12 -3 15 -5 4
-12 2 -15 -3z"/>
<path d="M2703 1419 c6 -10 16 -15 21 -12 6 4 5 8 -2 11 -7 2 -10 7 -8 11 3 4
-1 8 -8 8 -11 0 -12 -4 -3 -18z"/>
<path d="M2440 1350 c6 -11 16 -20 22 -20 6 0 3 9 -7 20 -10 11 -20 20 -22 20
-2 0 1 -9 7 -20z"/>
<path d="M2740 1171 c0 -5 5 -13 10 -16 6 -3 10 -2 10 4 0 5 -4 13 -10 16 -5
3 -10 2 -10 -4z"/>
<path d="M2694 1141 c10 -11 15 -25 11 -30 -7 -12 7 -15 18 -5 9 10 -10 41
-30 48 -15 6 -15 5 1 -13z"/>
<path d="M2612 1103 c1 -18 5 -30 10 -27 4 3 8 0 8 -6 0 -7 -7 -10 -15 -6 -17
6 -20 -5 -4 -21 8 -8 8 -13 0 -17 -21 -13 -11 -27 17 -23 15 3 26 9 25 16 -2
6 13 21 32 33 19 13 35 27 35 32 0 5 -3 6 -7 3 -3 -4 -12 1 -19 11 -9 11 -13
13 -14 4 0 -7 -5 -10 -12 -6 -8 5 -9 0 -5 -16 6 -22 5 -22 -12 -4 -9 11 -22
28 -29 39 -10 18 -11 17 -10 -12z"/>
<path d="M2580 1100 c6 -11 15 -18 21 -15 5 4 3 12 -5 21 -21 20 -28 17 -16
-6z"/>
<path d="M2560 1070 c7 -14 7 -20 0 -20 -15 0 -12 -26 5 -40 21 -18 30 -6 10
14 -15 14 -15 16 -1 16 9 0 16 -5 16 -12 0 -6 2 -9 5 -6 9 8 -16 56 -32 62
-11 4 -11 1 -3 -14z"/>
<path d="M2665 1020 c3 -5 8 -10 11 -10 2 0 4 5 4 10 0 6 -5 10 -11 10 -5 0
-7 -4 -4 -10z"/>
<path d="M2936 1591 c-4 -7 -5 -15 -2 -18 9 -9 19 4 14 18 -4 11 -6 11 -12 0z"/>
<path d="M3645 1490 c4 -7 2 -16 -6 -22 -11 -8 -11 -9 2 -5 9 3 22 0 29 -6 10
-10 10 -7 1 10 -6 12 -16 25 -23 29 -7 5 -8 3 -3 -6z"/>
<path d="M3450 1460 c0 -5 5 -10 11 -10 5 0 7 5 4 10 -3 6 -8 10 -11 10 -2 0
-4 -4 -4 -10z"/>
<path d="M3640 1323 c0 -6 -3 -20 -7 -30 -7 -17 -6 -17 11 0 14 14 16 21 7 30
-8 8 -11 8 -11 0z"/>
<path d="M3750 1315 c0 -5 5 -17 10 -25 5 -8 10 -10 10 -5 0 6 -5 17 -10 25
-5 8 -10 11 -10 5z"/>
<path d="M3730 1298 c0 -9 7 -22 17 -29 15 -13 15 -12 3 11 -17 34 -20 36 -20
18z"/>
<path d="M3645 1270 c-3 -5 -1 -10 4 -10 6 0 11 5 11 10 0 6 -2 10 -4 10 -3 0
-8 -4 -11 -10z"/>
<path d="M3674 1260 c3 -36 14 -50 32 -43 10 4 12 9 4 18 -5 6 -8 15 -5 18 3
4 2 5 -2 2 -3 -3 -12 3 -19 13 -12 15 -13 14 -10 -8z"/>
<path d="M3683 1176 c5 -16 27 -19 27 -3 0 7 -7 14 -15 14 -9 0 -14 -5 -12
-11z"/>
<path d="M3163 977 c4 -11 2 -14 -7 -11 -7 3 -16 -2 -19 -10 -5 -12 -1 -13 24
-4 30 10 34 28 9 36 -9 3 -11 -1 -7 -11z"/>
<path d="M280 5610 c-9 -6 -10 -10 -3 -10 6 0 15 5 18 10 8 12 4 12 -15 0z"/>
<path d="M5272 5557 c-7 -8 -5 -17 5 -26 13 -12 14 -11 8 7 -5 17 -3 21 9 16
9 -3 16 -4 16 -1 0 12 -29 15 -38 4z"/>
<path d="M182 4980 c0 -14 2 -19 5 -12 2 6 2 18 0 25 -3 6 -5 1 -5 -13z"/>
<path d="M281 4814 c0 -11 3 -14 6 -6 3 7 2 16 -1 19 -3 4 -6 -2 -5 -13z"/>
<path d="M285 4690 c-3 -6 1 -7 9 -4 18 7 21 14 7 14 -6 0 -13 -4 -16 -10z"/>
<path d="M361 4184 c0 -11 3 -14 6 -6 3 7 2 16 -1 19 -3 4 -6 -2 -5 -13z"/>
<path d="M371 4144 c0 -11 3 -14 6 -6 3 7 2 16 -1 19 -3 4 -6 -2 -5 -13z"/>
<path d="M382 4105 c0 -11 4 -31 8 -45 6 -20 8 -21 8 -5 0 11 -4 31 -8 45 -6
20 -8 21 -8 5z"/>
<path d="M536 4053 c-12 -12 -6 -40 9 -40 8 0 15 8 15 18 0 20 -14 32 -24 22z"/>
<path d="M6160 4046 c0 -2 7 -7 16 -10 8 -3 12 -2 9 4 -6 10 -25 14 -25 6z"/>
<path d="M401 4025 c0 -5 6 -32 13 -60 l14 -50 -2 46 c0 26 -4 45 -8 43 -3 -2
-9 4 -11 13 -3 10 -5 14 -6 8z"/>
<path d="M1500 4010 c-9 -6 -10 -10 -3 -10 6 0 15 5 18 10 8 12 4 12 -15 0z"/>
<path d="M6237 3998 c7 -8 10 -18 6 -22 -4 -4 1 -4 11 0 15 6 17 4 11 -6 -5
-9 -4 -11 3 -6 16 10 16 11 -15 32 -20 13 -25 13 -16 2z"/>
<path d="M6294 3961 c7 -11 46 -35 46 -28 0 3 -12 12 -26 22 -15 9 -23 12 -20
6z"/>
<path d="M2466 3931 c-4 -5 3 -7 14 -4 23 6 26 13 6 13 -8 0 -17 -4 -20 -9z"/>
<path d="M6270 3936 c0 -2 7 -7 16 -10 8 -3 12 -2 9 4 -6 10 -25 14 -25 6z"/>
<path d="M3445 3910 c-20 -22 -14 -53 10 -44 8 3 15 10 15 15 0 4 -7 6 -16 2
-14 -5 -14 -3 -3 15 10 15 16 18 21 9 5 -8 8 -7 8 6 0 22 -13 22 -35 -3z"/>
<path d="M6407 3883 c-11 -10 3 -22 17 -17 8 3 16 -2 19 -13 4 -16 5 -16 6 -1
1 18 -32 42 -42 31z"/>
<path d="M3310 3864 l-35 -14 40 6 c22 3 50 6 63 6 12 0 22 4 22 9 0 13 -50 9
-90 -7z"/>
<path d="M3151 3851 c-10 -7 -11 -13 -2 -27 6 -12 11 -14 11 -6 0 8 6 12 13 9
6 -2 20 0 30 5 11 5 17 5 17 -2 0 -5 5 -10 11 -10 5 0 8 4 5 9 -4 5 0 12 6 14
7 3 4 6 -7 6 -11 0 -26 -3 -34 -8 -10 -7 -18 -5 -25 5 -7 8 -16 10 -25 5z"/>
<path d="M3357 3830 c3 -11 7 -20 8 -20 1 0 5 9 8 20 3 12 0 20 -8 20 -8 0
-11 -8 -8 -20z"/>
<path d="M6380 3838 c0 -4 4 -8 9 -8 6 0 12 4 15 8 3 5 -1 9 -9 9 -8 0 -15 -4
-15 -9z"/>
<path d="M6486 3803 c7 -27 28 -96 48 -154 20 -59 41 -131 47 -160 6 -30 23
-92 39 -139 67 -204 92 -291 87 -305 -4 -9 -1 -12 7 -9 9 4 15 -6 19 -28 7
-45 11 -61 19 -74 16 -25 59 -177 54 -189 -3 -9 0 -12 10 -8 20 7 18 -10 -6
-40 -11 -14 -20 -28 -20 -31 0 -3 -25 -46 -55 -96 -30 -50 -62 -103 -71 -118
l-16 -27 20 25 c12 14 51 75 87 135 36 61 102 166 147 235 45 69 102 159 128
201 26 41 76 115 110 164 35 50 56 84 48 77 -9 -7 -37 -44 -63 -82 -47 -71
-58 -77 -68 -40 -3 13 0 20 10 20 8 0 12 4 8 9 -3 5 3 16 13 23 11 7 24 30 31
50 7 20 21 40 31 43 27 8 33 33 9 40 -10 4 -16 11 -13 17 4 7 9 6 14 -2 6 -9
13 -7 28 8 11 11 17 24 14 28 -4 4 -2 4 5 0 9 -5 9 -14 3 -32 -15 -38 -11 -53
5 -24 22 38 18 57 -17 83 -56 41 -147 87 -153 78 -3 -6 -1 -12 5 -16 5 -3 10
-4 10 0 0 3 23 -6 50 -20 28 -14 50 -27 50 -28 0 -2 -9 -3 -19 -3 -11 0 -17 4
-15 8 6 10 -18 10 -31 0 -12 -8 -31 -39 -44 -69 -13 -29 -30 -37 -37 -18 -6
14 -9 14 -16 3 -8 -10 -9 -10 -5 2 2 8 12 15 23 15 12 0 18 6 16 18 -2 9 2 17
7 17 13 0 42 55 34 64 -4 3 -14 -1 -23 -9 -15 -13 -19 -14 -29 -1 -9 10 -9 16
-1 21 7 5 0 14 -20 27 -18 10 -30 22 -26 25 3 3 15 -2 26 -12 11 -10 23 -16
26 -12 3 3 -5 12 -18 20 -12 7 -136 87 -274 175 -138 89 -253 162 -256 162 -3
0 1 -21 8 -47z m452 -266 c4 0 6 -3 5 -8 -2 -4 5 -5 14 -2 11 4 14 3 9 -5 -4
-7 4 -23 20 -37 15 -14 21 -25 14 -25 -9 0 -7 -6 6 -16 16 -13 16 -15 2 -10
-10 3 -18 1 -18 -4 0 -10 14 -14 38 -11 6 1 12 -3 12 -9 0 -5 -5 -10 -11 -10
-6 0 -9 -9 -6 -20 7 -28 -2 -25 -13 5 -9 24 -30 35 -30 15 0 -5 4 -10 10 -10
5 0 7 -7 3 -16 -5 -14 -8 -12 -19 7 -16 29 -18 42 -4 34 6 -3 10 -1 10 4 0 6
-7 11 -15 11 -9 0 -15 9 -15 23 0 13 -4 27 -9 33 -6 5 -17 27 -26 49 -14 36
-14 38 0 20 9 -11 19 -19 23 -18z m215 -154 c-7 -2 -13 -11 -13 -19 0 -8 -8
-14 -17 -14 -15 0 -16 2 -3 10 8 5 11 10 5 10 -5 0 -3 5 5 10 8 5 20 9 25 9 6
0 4 -3 -2 -6z m-61 -22 c-8 -4 -14 -12 -14 -17 -4 -38 -22 -58 -30 -33 -5 14
32 59 47 59 6 0 4 -4 -3 -9z m14 -57 c-4 -9 -9 -15 -11 -12 -3 3 -3 13 1 22 4
9 9 15 11 12 3 -3 3 -13 -1 -22z m38 1 c3 -8 1 -15 -4 -15 -6 0 -10 7 -10 15
0 8 2 15 4 15 2 0 6 -7 10 -15z m-124 -5 c0 -5 -2 -10 -4 -10 -3 0 -8 5 -11
10 -3 6 -1 10 4 10 6 0 11 -4 11 -10z m40 -31 c5 9 9 6 13 -8 6 -26 -18 -29
-32 -3 -8 12 -10 13 -11 3 0 -8 -3 -11 -6 -8 -4 4 -1 14 7 23 13 16 14 16 18
-1 2 -13 5 -14 11 -6z m53 -19 c-3 -11 -9 -17 -14 -15 -10 7 -1 35 11 35 5 0
6 -9 3 -20z m-60 -40 c3 -11 2 -18 -3 -15 -4 3 -10 14 -13 25 -3 11 -2 18 3
15 4 -3 10 -14 13 -25z m40 3 c-7 -2 -19 -2 -25 0 -7 3 -2 5 12 5 14 0 19 -2
13 -5z"/>
<path d="M3303 3833 c15 -9 6 -23 -14 -23 -11 0 -17 -4 -14 -10 4 -6 16 -8 27
-4 13 4 18 2 14 -4 -3 -6 3 -17 15 -25 14 -11 17 -16 7 -20 -7 -2 -10 -7 -6
-11 3 -4 19 -1 35 7 15 8 35 12 43 9 11 -3 12 -2 4 8 -9 8 -17 9 -31 2 -15 -8
-22 -7 -31 9 -7 10 -12 28 -12 39 0 11 -4 20 -9 20 -5 0 -15 2 -23 3 -7 2 -10
2 -5 0z"/>
<path d="M3101 3812 c-7 -13 -6 -19 2 -19 7 0 13 9 13 19 0 10 -1 18 -3 18 -1
0 -7 -8 -12 -18z"/>
<path d="M2526 3793 c-6 -14 -5 -15 5 -6 7 7 10 15 7 18 -3 3 -9 -2 -12 -12z"/>
<path d="M2637 3789 c7 -7 15 -10 18 -7 3 3 -2 9 -12 12 -14 6 -15 5 -6 -5z"/>
<path d="M3443 3784 c9 -9 -30 -47 -41 -40 -5 3 -15 -1 -22 -9 -7 -8 -9 -15
-4 -15 5 0 2 -5 -6 -10 -11 -8 -8 -9 14 -6 16 3 29 6 30 8 1 2 12 16 24 32 25
32 28 46 10 46 -6 0 -9 -3 -5 -6z m-36 -60 c-3 -3 -12 -4 -19 -1 -8 3 -5 6 6
6 11 1 17 -2 13 -5z"/>
<path d="M2326 3762 c-2 -4 -1 -14 4 -22 13 -21 1 -43 -17 -29 -11 9 -17 9
-26 0 -9 -9 -7 -13 11 -17 27 -8 27 -13 5 -31 -16 -12 -15 -12 9 -2 14 6 24
17 22 24 -3 7 1 19 10 27 9 9 11 20 6 28 -5 8 -6 18 -4 22 3 4 1 8 -5 8 -5 0
-12 -4 -15 -8z"/>
<path d="M2360 3751 c0 -6 4 -13 10 -16 6 -3 7 1 4 9 -7 18 -14 21 -14 7z"/>
<path d="M3180 3756 c0 -2 7 -7 16 -10 8 -3 12 -2 9 4 -6 10 -25 14 -25 6z"/>
<path d="M2300 3741 c0 -5 7 -11 14 -14 10 -4 13 -1 9 9 -6 15 -23 19 -23 5z"/>
<path d="M3065 3740 c3 -5 8 -10 11 -10 2 0 4 5 4 10 0 6 -5 10 -11 10 -5 0
-7 -4 -4 -10z"/>
<path d="M2586 3731 c-4 -5 3 -7 14 -4 23 6 26 13 6 13 -8 0 -17 -4 -20 -9z"/>
<path d="M3100 3733 c0 -19 14 -22 35 -7 16 12 17 14 2 14 -9 0 -17 -6 -17
-12 0 -9 -4 -8 -10 2 -6 9 -10 10 -10 3z"/>
<path d="M3245 3730 c-3 -5 1 -10 10 -10 9 0 13 5 10 10 -3 6 -8 10 -10 10 -2
0 -7 -4 -10 -10z"/>
<path d="M2255 3720 c-3 -5 -1 -10 4 -10 6 0 11 5 11 10 0 6 -2 10 -4 10 -3 0
-8 -4 -11 -10z"/>
<path d="M6487 3723 c-4 -3 -7 -13 -7 -22 1 -13 3 -13 11 2 11 19 8 33 -4 20z"/>
<path d="M2217 3687 c-8 -21 20 -57 38 -51 8 4 15 11 15 16 0 7 -5 6 -14 -1
-10 -9 -15 -8 -19 3 -4 9 3 16 19 20 14 4 22 11 19 17 -5 7 -11 7 -19 0 -9 -7
-16 -7 -23 0 -7 7 -12 6 -16 -4z"/>
<path d="M2383 3669 c-2 -23 3 -25 10 -4 4 8 3 16 -1 19 -4 3 -9 -4 -9 -15z"/>
<path d="M2190 3656 c0 -2 7 -9 15 -16 13 -11 14 -10 9 4 -5 14 -24 23 -24 12z"/>
<path d="M2536 3623 c-6 -14 -5 -15 5 -6 7 7 10 15 7 18 -3 3 -9 -2 -12 -12z"/>
<path d="M6435 3500 c-3 -5 -2 -18 4 -27 7 -14 9 -12 8 10 -2 30 -3 31 -12 17z"/>
<path d="M3718 3463 c6 -2 18 -2 25 0 6 3 1 5 -13 5 -14 0 -19 -2 -12 -5z"/>
<path d="M6270 3365 c0 -8 4 -15 10 -15 5 0 7 7 4 15 -4 8 -8 15 -10 15 -2 0
-4 -7 -4 -15z"/>
<path d="M4320 3339 c0 -5 -6 -7 -12 -3 -7 4 -10 3 -5 -1 4 -5 16 -9 27 -10
15 -1 17 1 9 12 -14 16 -19 17 -19 2z"/>
<path d="M6316 3333 c-6 -14 -5 -15 5 -6 7 7 10 15 7 18 -3 3 -9 -2 -12 -12z"/>
<path d="M4435 3290 c3 -5 1 -10 -5 -10 -6 0 -8 -4 -5 -10 4 -6 11 -5 19 3 15
13 12 27 -5 27 -6 0 -7 -4 -4 -10z"/>
<path d="M3828 3118 c3 -12 -1 -18 -12 -18 -9 0 -16 -7 -16 -16 0 -14 2 -15
18 -3 9 8 21 19 25 24 5 6 7 1 4 -12 -3 -15 -1 -20 8 -17 7 3 12 16 11 28 -1
16 -6 22 -15 18 -8 -3 -12 -1 -8 5 3 5 0 10 -7 10 -8 0 -11 -8 -8 -19z"/>
<path d="M3767 3113 c-12 -11 -8 -23 8 -23 8 0 15 7 15 15 0 16 -12 20 -23 8z"/>
<path d="M6557 3093 c-4 -3 -7 -11 -7 -17 0 -6 5 -5 12 2 6 6 9 14 7 17 -3 3
-9 2 -12 -2z"/>
<path d="M3668 3055 c-6 -14 -15 -25 -20 -25 -5 0 -7 4 -4 8 3 5 -1 9 -9 9
-10 0 -10 -5 3 -23 19 -27 30 -30 38 -11 3 8 18 13 37 12 40 -3 59 4 51 17 -4
7 -9 6 -14 -1 -3 -7 -14 -9 -24 -5 -15 6 -15 7 1 20 17 12 16 13 -6 14 -18 0
-22 -4 -18 -19 3 -15 0 -19 -14 -18 -22 1 -22 2 -9 28 6 10 8 19 5 19 -3 0
-11 -11 -17 -25z"/>
<path d="M3765 3060 c3 -5 8 -10 11 -10 2 0 4 5 4 10 0 6 -5 10 -11 10 -5 0
-7 -4 -4 -10z"/>
<path d="M6377 3059 c7 -7 15 -10 18 -7 3 3 -2 9 -12 12 -14 6 -15 5 -6 -5z"/>
<path d="M3830 3050 c0 -5 5 -10 11 -10 5 0 7 5 4 10 -3 6 -8 10 -11 10 -2 0
-4 -4 -4 -10z"/>
<path d="M6356 3035 c4 -8 8 -15 10 -15 2 0 4 7 4 15 0 8 -4 15 -10 15 -5 0
-7 -7 -4 -15z"/>
<path d="M3555 3019 c4 -5 13 -9 21 -9 8 0 14 -5 14 -11 0 -8 5 -8 15 1 8 7
15 18 14 24 0 7 -2 6 -6 -2 -2 -6 -9 -10 -14 -6 -17 10 -50 13 -44 3z"/>
<path d="M4928 3023 c7 -3 16 -2 19 1 4 3 -2 6 -13 5 -11 0 -14 -3 -6 -6z"/>
<path d="M6668 2983 c7 -3 16 -2 19 1 4 3 -2 6 -13 5 -11 0 -14 -3 -6 -6z"/>
<path d="M6380 2961 c0 -6 4 -13 10 -16 6 -3 7 1 4 9 -7 18 -14 21 -14 7z"/>
<path d="M2018 2953 c7 -3 16 -2 19 1 4 3 -2 6 -13 5 -11 0 -14 -3 -6 -6z"/>
<path d="M5790 2950 c0 -5 5 -10 11 -10 5 0 7 5 4 10 -3 6 -8 10 -11 10 -2 0
-4 -4 -4 -10z"/>
<path d="M5030 2930 c0 -5 5 -10 10 -10 6 0 10 5 10 10 0 6 -4 10 -10 10 -5 0
-10 -4 -10 -10z"/>
<path d="M6620 2929 c0 -5 5 -7 10 -4 6 3 10 8 10 11 0 2 -4 4 -10 4 -5 0 -10
-5 -10 -11z"/>
<path d="M3760 2922 c0 -6 -9 -14 -20 -17 -11 -3 -20 -15 -20 -25 0 -28 -18
-34 -32 -10 -17 26 -23 25 -25 -2 -2 -25 22 -68 38 -68 6 0 7 5 4 11 -4 6 3
20 14 31 12 11 20 25 18 31 -2 6 6 19 17 28 12 10 18 21 14 25 -5 4 -8 2 -8
-4z m-65 -90 c-8 -8 -25 10 -25 26 0 13 2 13 14 -4 8 -10 13 -21 11 -22z"/>
<path d="M4985 2917 c-25 -28 -23 -36 17 -67 23 -19 38 -29 35 -23 -4 7 -3 14
3 18 5 3 10 -3 10 -14 0 -12 5 -21 11 -21 5 0 8 -3 5 -8 -2 -4 7 -12 20 -19
13 -6 26 -7 29 -2 3 4 13 6 23 3 14 -5 15 -4 2 5 -8 6 -24 8 -34 5 -19 -6 -19
-5 2 29 18 31 19 37 6 48 -8 6 -17 9 -21 5 -3 -3 -1 -6 5 -6 7 0 12 -5 12 -11
0 -15 -30 -43 -37 -35 -4 3 -2 11 5 18 14 14 -12 43 -30 32 -7 -4 -10 -4 -6 0
6 8 -30 56 -41 56 -3 -1 -11 -6 -16 -13z m38 -46 c3 -13 0 -18 -7 -15 -7 3
-13 11 -13 19 0 22 14 18 20 -4z"/>
<path d="M6730 2911 c0 -10 19 -25 25 -20 1 2 -3 10 -11 17 -8 7 -14 8 -14 3z"/>
<path d="M5070 2906 c0 -2 7 -6 15 -10 8 -3 15 -1 15 4 0 6 -7 10 -15 10 -8 0
-15 -2 -15 -4z"/>
<path d="M3495 2850 c-3 -5 1 -10 9 -10 9 0 16 5 16 10 0 6 -4 10 -9 10 -6 0
-13 -4 -16 -10z"/>
<path d="M3629 2848 c7 -10 11 -25 7 -33 -6 -17 9 -21 20 -4 3 6 -4 21 -17 33
-13 11 -17 13 -10 4z"/>
<path d="M5150 2850 c0 -5 5 -10 10 -10 6 0 10 5 10 10 0 6 -4 10 -10 10 -5 0
-10 -4 -10 -10z"/>
<path d="M6451 2842 c-7 -13 -10 -28 -7 -35 2 -7 5 -5 5 5 1 9 6 18 13 20 6 2
9 11 6 18 -3 11 -8 9 -17 -8z"/>
<path d="M3455 2840 c-3 -5 -2 -10 4 -10 5 0 13 5 16 10 3 6 2 10 -4 10 -5 0
-13 -4 -16 -10z"/>
<path d="M3530 2840 c0 -5 5 -10 10 -10 6 0 10 5 10 10 0 6 -4 10 -10 10 -5 0
-10 -4 -10 -10z"/>
<path d="M6690 2836 c0 -10 -9 -16 -25 -16 -32 0 -33 -15 -2 -16 25 -2 54 31
37 41 -6 3 -10 -1 -10 -9z"/>
<path d="M6421 2824 c0 -11 3 -14 6 -6 3 7 2 16 -1 19 -3 4 -6 -2 -5 -13z"/>
<path d="M3522 2815 c4 -4 3 -16 -3 -26 -5 -11 -7 -19 -5 -19 3 0 10 9 16 19
7 15 7 22 -2 27 -7 4 -10 4 -6 -1z"/>
<path d="M3556 2803 c-6 -14 -5 -15 5 -6 7 7 10 15 7 18 -3 3 -9 -2 -12 -12z"/>
<path d="M6475 2810 c-4 -6 -3 -16 3 -22 6 -6 12 -6 17 2 4 6 3 16 -3 22 -6 6
-12 6 -17 -2z"/>
<path d="M6735 2810 c-19 -8 -19 -9 3 -9 12 -1 22 4 22 9 0 6 -1 10 -2 9 -2 0
-12 -4 -23 -9z"/>
<path d="M6749 2791 c-14 -14 -29 -37 -33 -49 -7 -22 -6 -23 13 -12 12 6 19
16 15 21 -3 6 3 13 15 16 14 3 21 13 21 29 0 13 -1 23 -2 23 -2 -1 -15 -13
-29 -28z"/>
<path d="M3657 2803 c-13 -12 -7 -25 8 -19 8 3 15 1 15 -4 0 -6 -9 -10 -21
-10 -16 0 -19 -4 -15 -17 4 -9 2 -20 -5 -23 -7 -5 -8 -10 -1 -14 6 -3 13 3 17
14 3 11 10 20 15 20 12 0 20 28 14 45 -7 16 -17 19 -27 8z"/>
<path d="M6570 2799 c0 -6 -8 -8 -19 -4 -26 8 -54 -21 -45 -48 5 -15 3 -19 -9
-14 -11 4 -13 0 -10 -13 5 -17 6 -17 25 2 16 16 18 22 7 29 -12 7 -11 11 3 26
21 20 36 10 18 -12 -10 -12 -10 -15 0 -15 9 0 8 -6 -4 -19 -10 -11 -16 -28
-13 -38 4 -16 6 -15 12 5 10 30 49 26 53 -5 2 -13 -2 -23 -8 -23 -6 0 -9 4 -5
9 3 5 2 12 -3 15 -5 3 -17 -9 -27 -27 -15 -25 -20 -28 -23 -14 -2 9 -8 17 -13
17 -6 0 -5 -8 1 -20 12 -22 25 -26 35 -10 3 6 11 10 17 10 5 0 0 -9 -13 -19
-15 -12 -26 -15 -30 -9 -4 6 -12 7 -18 4 -6 -4 -11 -4 -10 1 4 21 -2 44 -9 39
-5 -3 -7 -18 -4 -34 3 -24 8 -29 24 -24 18 4 20 1 16 -21 -3 -15 -1 -24 3 -21
5 3 9 10 9 15 0 6 8 18 17 27 16 16 16 16 10 0 -3 -10 -2 -18 3 -18 6 0 10 7
10 15 0 8 7 15 15 15 8 0 15 -4 15 -8 0 -14 -36 -43 -44 -35 -4 4 -4 -1 0 -11
5 -14 4 -17 -5 -11 -10 6 -11 3 -3 -11 5 -11 7 -26 4 -34 -3 -8 14 1 36 19 48
38 56 53 12 21 -34 -24 -41 -14 -9 13 14 12 20 28 18 50 -3 51 0 67 14 67 8 0
13 -8 13 -17 -1 -18 12 -30 16 -15 5 15 52 52 67 52 14 1 13 2 -2 11 -12 7
-16 17 -12 30 5 15 2 19 -17 17 -17 -2 -23 2 -22 15 2 19 -30 24 -41 6 -11
-17 5 -25 16 -9 8 11 9 10 4 -7 -5 -17 -2 -23 10 -23 12 0 15 -5 11 -16 -3 -9
-6 -18 -6 -20 0 -2 -4 -4 -10 -4 -5 0 -10 8 -10 18 0 19 -18 42 -33 42 -5 0
-7 -7 -3 -15 4 -11 -1 -15 -19 -15 -14 0 -25 5 -25 10 0 6 8 10 17 10 15 0 14
2 -3 15 -19 14 -19 14 2 15 12 0 24 7 28 15 4 10 -1 15 -14 15 -11 0 -20 -5
-20 -11z"/>
<path d="M3470 2779 c0 -5 5 -7 10 -4 6 3 10 8 10 11 0 2 -4 4 -10 4 -5 0 -10
-5 -10 -11z"/>
<path d="M5795 2780 c-3 -5 -1 -10 4 -10 6 0 11 5 11 10 0 6 -2 10 -4 10 -3 0
-8 -4 -11 -10z"/>
<path d="M5160 2765 c-10 -12 -16 -13 -26 -4 -17 14 -19 -2 -3 -18 6 -6 18 -9
27 -6 9 4 13 2 9 -4 -6 -10 14 -25 36 -27 5 -1 14 -9 21 -18 7 -10 18 -18 24
-18 7 0 9 8 5 18 -6 15 -4 15 15 -2 26 -22 28 -28 7 -20 -8 4 -15 2 -15 -4 0
-21 30 -21 41 0 9 17 9 23 0 26 -6 2 -8 8 -5 13 8 14 -15 39 -37 39 -11 0 -19
-7 -19 -15 0 -8 -6 -12 -14 -9 -8 3 -12 13 -9 25 5 19 -12 28 -19 9 -2 -6 -8
-6 -18 0 -13 8 -12 10 3 10 9 0 17 5 17 10 0 15 -26 12 -40 -5z m130 -49 c0
-3 -4 -8 -10 -11 -5 -3 -10 -1 -10 4 0 6 5 11 10 11 6 0 10 -2 10 -4z"/>
<path d="M3596 2753 c-6 -14 -5 -15 5 -6 7 7 10 15 7 18 -3 3 -9 -2 -12 -12z"/>
<path d="M5285 2761 c-3 -5 -1 -12 5 -16 5 -3 10 1 10 9 0 18 -6 21 -15 7z"/>
<path d="M3475 2740 c-3 -5 -2 -10 4 -10 5 0 13 5 16 10 3 6 2 10 -4 10 -5 0
-13 -4 -16 -10z"/>
<path d="M2738 2723 c7 -3 16 -2 19 1 4 3 -2 6 -13 5 -11 0 -14 -3 -6 -6z"/>
<path d="M2770 2720 c0 -5 5 -10 11 -10 5 0 7 5 4 10 -3 6 -8 10 -11 10 -2 0
-4 -4 -4 -10z"/>
<path d="M2665 2709 c-11 -16 -1 -19 13 -3 7 8 8 14 3 14 -5 0 -13 -5 -16 -11z"/>
<path d="M3490 2710 c0 -5 5 -10 11 -10 5 0 7 5 4 10 -3 6 -8 10 -11 10 -2 0
-4 -4 -4 -10z"/>
<path d="M5775 2710 c3 -5 8 -10 11 -10 2 0 4 5 4 10 0 6 -5 10 -11 10 -5 0
-7 -4 -4 -10z"/>
<path d="M3622 2700 c2 -8 -4 -14 -12 -15 -11 0 -14 -9 -12 -30 3 -29 3 -29
-17 -11 -12 11 -21 25 -21 31 0 7 -11 12 -25 11 l-26 -1 21 -17 c12 -10 19
-22 15 -27 -3 -6 4 -20 15 -31 19 -19 21 -19 18 -3 -2 10 3 18 12 18 8 0 16
10 18 23 2 13 8 20 14 16 6 -4 8 -2 4 4 -3 5 0 12 6 15 10 4 10 7 0 18 -11 12
-13 12 -10 -1z"/>
<path d="M5876 2698 c3 -5 10 -6 15 -3 13 9 11 12 -6 12 -8 0 -12 -4 -9 -9z"/>
<path d="M3279 2691 c7 -5 10 -14 6 -20 -5 -9 -11 -9 -23 0 -13 10 -13 9 1 -7
15 -16 19 -17 27 -4 5 8 10 10 10 4 0 -7 7 -14 14 -17 10 -4 13 -1 9 9 -7 20
7 18 24 -3 12 -16 12 -15 2 9 -12 28 -43 49 -32 22 3 -7 1 -14 -5 -14 -5 0
-12 7 -16 15 -3 8 -11 15 -18 15 -10 0 -10 -2 1 -9z"/>
<path d="M2555 2680 c-3 -6 1 -7 9 -4 18 7 21 14 7 14 -6 0 -13 -4 -16 -10z"/>
<path d="M2680 2680 c-9 -6 -10 -10 -3 -10 6 0 15 5 18 10 8 12 4 12 -15 0z"/>
<path d="M2625 2670 c-19 -8 -19 -9 3 -9 12 -1 22 4 22 9 0 6 -1 10 -2 9 -2 0
-12 -4 -23 -9z"/>
<path d="M4092 2654 c8 -17 8 -27 -1 -37 -9 -12 -7 -14 14 -14 19 0 25 4 21
14 -4 8 -9 25 -12 37 -3 13 -11 23 -19 23 -10 0 -11 -6 -3 -23z"/>
<path d="M5797 2673 c-4 -3 -7 -11 -7 -17 0 -6 5 -5 12 2 6 6 9 14 7 17 -3 3
-9 2 -12 -2z"/>
<path d="M2470 2660 c-9 -6 -10 -10 -3 -10 6 0 15 5 18 10 8 12 4 12 -15 0z"/>
<path d="M3500 2661 c0 -6 4 -13 10 -16 6 -3 7 1 4 9 -7 18 -14 21 -14 7z"/>
<path d="M6055 2659 c-4 -6 -5 -12 -2 -15 2 -3 7 2 10 11 7 17 1 20 -8 4z"/>
<path d="M3375 2650 c3 -5 11 -10 16 -10 6 0 7 5 4 10 -3 6 -11 10 -16 10 -6
0 -7 -4 -4 -10z"/>
<path d="M2620 2646 c0 -2 7 -7 16 -10 8 -3 12 -2 9 4 -6 10 -25 14 -25 6z"/>
<path d="M3448 2625 c3 -19 8 -23 15 -16 8 8 7 16 -5 27 -14 14 -15 14 -10
-11z"/>
<path d="M2710 2631 c0 -6 4 -13 10 -16 6 -3 7 1 4 9 -7 18 -14 21 -14 7z"/>
<path d="M3271 2631 c-8 -5 -19 -7 -25 -5 -7 3 -12 -5 -13 -16 -1 -14 2 -17
10 -9 7 5 21 16 32 24 22 16 19 20 -4 6z"/>
<path d="M3426 2605 c1 -19 -1 -35 -6 -35 -12 0 -20 28 -13 48 4 11 -1 8 -16
-8 l-22 -25 7 24 c5 21 4 22 -9 10 -13 -12 -12 -17 5 -41 11 -16 15 -28 9 -28
-5 0 -15 8 -20 18 -6 9 -11 12 -11 5 0 -14 27 -43 41 -43 5 0 9 9 9 19 0 12 7
18 17 17 12 -1 17 8 19 32 1 18 -2 34 -6 37 -4 2 -6 -11 -4 -30z m-26 -25 c0
-5 -4 -10 -10 -10 -5 0 -10 5 -10 10 0 6 5 10 10 10 6 0 10 -4 10 -10z"/>
<path d="M3485 2620 c-3 -5 -1 -10 4 -10 6 0 11 5 11 10 0 6 -2 10 -4 10 -3 0
-8 -4 -11 -10z"/>
<path d="M3510 2613 c0 -9 3 -13 7 -10 3 4 12 2 20 -4 18 -15 17 -1 -1 17 -19
18 -26 18 -26 -3z"/>
<path d="M6020 2620 c0 -5 5 -10 10 -10 6 0 10 5 10 10 0 6 -4 10 -10 10 -5 0
-10 -4 -10 -10z"/>
<path d="M2516 2605 c-9 -26 -7 -32 5 -12 6 10 9 21 6 23 -2 3 -7 -2 -11 -11z"/>
<path d="M2691 2604 c0 -11 3 -14 6 -6 3 7 2 16 -1 19 -3 4 -6 -2 -5 -13z"/>
<path d="M5796 2605 c-9 -26 -7 -32 5 -12 6 10 9 21 6 23 -2 3 -7 -2 -11 -11z"/>
<path d="M6657 2613 c-4 -3 -7 -13 -7 -21 0 -12 3 -12 15 -2 8 7 15 16 15 21
0 11 -14 12 -23 2z"/>
<path d="M2358 2603 c-16 -2 -28 -9 -28 -14 0 -10 44 -2 70 12 17 9 10 10 -42
2z"/>
<path d="M3322 2588 c-8 -8 -8 -17 -1 -30 5 -10 8 -22 5 -26 -2 -4 4 -8 14 -8
17 0 17 2 4 28 -8 16 -12 33 -9 38 8 14 2 13 -13 -2z"/>
<path d="M2406 2574 c-11 -8 -16 -14 -10 -14 13 0 39 18 34 24 -3 2 -14 -2
-24 -10z"/>
<path d="M2650 2580 c0 -5 5 -10 10 -10 6 0 10 5 10 10 0 6 -4 10 -10 10 -5 0
-10 -4 -10 -10z"/>
<path d="M4076 2580 c-16 -5 -33 -7 -37 -5 -4 3 -6 -6 -4 -20 1 -16 -3 -25
-11 -25 -8 0 -14 -7 -14 -16 0 -9 -5 -12 -12 -8 -6 4 -8 3 -5 -3 5 -7 19 -7
44 2 27 9 42 10 51 3 9 -8 12 -6 12 6 0 10 4 15 9 12 17 -11 41 18 34 42 -4
18 -8 20 -14 10 -7 -10 -9 -10 -9 0 0 14 -3 14 -44 2z m44 -30 c0 -5 -10 -10
-22 -9 -22 0 -22 1 -3 9 11 5 21 9 23 9 1 1 2 -3 2 -9z"/>
<path d="M2278 2563 c7 -3 16 -2 19 1 4 3 -2 6 -13 5 -11 0 -14 -3 -6 -6z"/>
<path d="M2317 2564 c-3 -3 -3 -13 0 -22 5 -11 3 -13 -7 -7 -9 5 -11 4 -6 -4
4 -6 11 -9 16 -6 4 3 10 -1 13 -7 3 -7 4 -1 3 15 -3 29 -9 40 -19 31z"/>
<path d="M3153 2555 c-17 -19 -17 -30 0 -16 10 8 17 7 26 -2 11 -10 11 -8 2
11 -14 26 -12 25 -28 7z"/>
<path d="M3535 2560 c3 -5 8 -10 11 -10 2 0 4 5 4 10 0 6 -5 10 -11 10 -5 0
-7 -4 -4 -10z"/>
<path d="M5990 2560 c-9 -6 -10 -10 -3 -10 6 0 15 5 18 10 8 12 4 12 -15 0z"/>
<path d="M2437 2549 c7 -7 15 -10 18 -7 3 3 -2 9 -12 12 -14 6 -15 5 -6 -5z"/>
<path d="M2641 2547 c-6 -8 -8 -17 -4 -20 3 -4 -1 -7 -10 -7 -9 0 -16 -6 -14
-12 1 -8 -6 -12 -18 -10 -19 3 -19 3 1 -18 25 -26 45 -20 37 10 -4 16 -2 19
12 14 15 -6 16 -4 7 13 -8 14 -8 23 0 31 7 7 9 12 6 12 -3 0 -11 -6 -17 -13z"/>
<path d="M3277 2553 c-17 -4 -16 -8 9 -34 27 -28 22 -42 -6 -16 -8 6 -1 -5 14
-27 20 -27 25 -40 17 -45 -9 -6 -8 -11 4 -21 13 -11 15 -10 9 4 -8 21 5 21 22
-1 18 -24 17 -36 0 -30 -10 4 -13 1 -9 -9 6 -17 23 -19 23 -2 0 6 8 4 19 -6
10 -10 26 -14 37 -10 18 5 18 5 -1 -10 -19 -16 -19 -17 -1 -34 17 -15 18 -15
13 0 -3 10 0 19 10 22 9 4 13 13 9 22 -3 8 -2 12 3 9 5 -3 12 -2 15 3 2 4 -4
13 -14 20 -16 10 -23 8 -40 -10 -17 -18 -20 -19 -20 -5 0 9 6 17 13 17 8 0 7
4 -3 11 -12 8 -10 9 9 4 16 -5 21 -4 17 4 -4 6 -16 11 -28 11 -14 0 -18 -5
-14 -16 4 -10 1 -14 -6 -11 -7 2 -12 13 -11 23 1 10 -7 30 -18 44 -11 15 -17
18 -13 8 7 -22 -2 -23 -22 -3 -13 12 -12 15 7 25 11 7 22 10 23 8 1 -2 10 -15
19 -30 21 -34 43 -35 70 -5 13 15 21 18 24 10 8 -22 19 -14 20 15 0 15 -1 20
-4 11 -3 -11 -12 -15 -30 -11 -19 4 -24 2 -18 -8 5 -9 1 -11 -16 -6 -13 3 -18
3 -11 0 17 -8 15 -24 -3 -24 -16 0 -39 36 -30 49 3 5 -7 8 -22 6 -15 -1 -35 5
-46 15 -18 17 -18 18 0 29 19 11 12 12 -20 4z m83 -124 c0 -6 -4 -7 -10 -4 -5
3 -10 11 -10 16 0 6 5 7 10 4 6 -3 10 -11 10 -16z"/>
<path d="M2550 2540 c0 -5 5 -10 11 -10 5 0 7 5 4 10 -3 6 -8 10 -11 10 -2 0
-4 -4 -4 -10z"/>
<path d="M6516 2534 c-3 -8 -2 -12 3 -9 5 3 11 -3 13 -12 3 -15 5 -15 10 -3 3
8 0 21 -7 27 -10 10 -14 9 -19 -3z"/>
<path d="M3192 2515 c-12 -13 -17 -27 -12 -30 6 -4 10 -1 10 5 0 6 5 8 12 4 7
-5 8 -3 3 6 -4 7 -2 16 6 21 7 4 11 10 8 13 -3 3 -15 -5 -27 -19z"/>
<path d="M3425 2526 c-11 -7 -23 -14 -27 -15 -5 0 -8 -4 -7 -8 2 -12 22 -4 44
18 23 22 18 25 -10 5z"/>
<path d="M6070 2529 c0 -5 5 -7 10 -4 6 3 10 8 10 11 0 2 -4 4 -10 4 -5 0 -10
-5 -10 -11z"/>
<path d="M3512 2521 c-11 -7 -11 -9 1 -14 9 -3 21 1 27 9 10 11 10 14 -1 14
-8 0 -20 -4 -27 -9z"/>
<path d="M4136 2499 c-14 -24 -21 -28 -27 -18 -9 14 -10 12 -13 -13 0 -7 -8
-13 -16 -14 -31 -2 -34 -6 -15 -15 17 -8 16 -8 -7 -4 -35 7 -43 -7 -18 -30 12
-11 18 -26 15 -35 -3 -10 1 -23 10 -30 8 -7 15 -17 15 -22 0 -6 -9 0 -19 13
l-19 24 -21 -24 c-17 -20 -27 -23 -62 -18 -30 4 -39 2 -36 -7 3 -7 -10 -21
-29 -31 -18 -10 -42 -35 -53 -56 -18 -34 -18 -39 -4 -51 9 -7 24 -12 33 -10
10 2 20 -4 23 -12 4 -9 1 -15 -4 -13 -6 1 -13 -10 -14 -25 -3 -25 0 -28 26
-28 21 0 29 5 29 18 0 14 -2 15 -10 2 -8 -13 -10 -12 -10 3 0 11 9 21 19 24
12 3 17 11 14 19 -3 8 -1 14 5 14 5 0 12 -9 15 -20 3 -11 1 -20 -4 -20 -10 0
-34 -49 -31 -62 3 -13 -16 -9 -21 5 -4 9 -8 9 -15 -2 -7 -10 -11 -10 -17 -1
-4 6 -13 9 -21 6 -7 -3 -16 0 -20 6 -5 7 -2 8 6 3 10 -6 12 -3 8 13 -4 15 -2
19 8 15 22 -8 16 6 -13 35 -16 15 -25 23 -20 18 13 -17 8 -28 -10 -22 -17 6
-17 5 0 -8 21 -16 22 -30 2 -22 -9 3 -15 0 -15 -10 0 -9 -5 -12 -11 -8 -8 4
-9 -1 -4 -17 6 -19 5 -22 -6 -12 -10 10 -15 9 -25 -5 -10 -14 -10 -20 3 -34 9
-10 21 -18 27 -18 6 0 4 5 -4 10 -13 9 -13 10 0 11 60 6 116 3 122 -5 5 -7 8
-6 8 2 0 7 5 10 10 7 6 -3 10 -1 10 4 0 6 7 11 16 11 8 0 12 5 9 10 -9 14 39
12 53 -2 9 -9 12 -8 12 6 0 15 3 16 15 6 12 -10 16 -9 21 4 4 9 4 20 0 23 -10
10 -46 11 -40 1 6 -10 -14 -9 -40 1 -14 5 -16 10 -8 15 7 4 17 4 22 1 6 -3 10
-1 10 4 0 6 -4 11 -10 11 -5 0 -10 10 -10 21 0 21 1 20 21 -5 11 -14 26 -26
32 -26 7 0 6 4 -3 10 -11 7 -12 10 -2 10 16 0 42 -24 42 -38 0 -6 10 -8 22 -4
15 3 19 2 14 -7 -6 -8 -1 -10 16 -6 12 3 33 7 46 8 13 1 28 11 34 22 9 16 8
18 -3 8 -14 -14 -39 0 -39 21 0 6 5 4 10 -4 9 -13 11 -13 20 0 5 8 10 11 10 6
0 -6 11 5 25 24 17 23 21 36 14 41 -7 4 -8 12 -3 20 14 23 17 62 3 54 -8 -5
-9 -1 -4 14 4 13 2 21 -5 21 -6 0 -9 4 -5 9 3 5 1 12 -4 15 -4 3 -11 25 -15
48 -5 33 -9 39 -17 28 -7 -11 -8 -7 -3 14 5 19 3 27 -4 22 -6 -4 -8 2 -4 16 3
14 2 19 -6 14 -12 -7 -16 4 -13 37 3 24 -2 21 -23 -14z m-11 -69 c-3 -5 -11
-10 -16 -10 -6 0 -7 5 -4 10 3 6 11 10 16 10 6 0 7 -4 4 -10z m-95 -140 c0 -5
-5 -10 -11 -10 -5 0 -7 5 -4 10 3 6 8 10 11 10 2 0 4 -4 4 -10z m180 3 c-8 -4
-21 -12 -29 -20 -7 -8 -16 -11 -19 -8 -8 7 30 34 48 34 13 -1 13 -1 0 -6z
m-155 -33 c-3 -5 -18 -10 -33 -9 l-27 1 25 8 c35 11 42 11 35 0z m-151 -8 c2
-4 -7 -8 -22 -9 -24 -2 -24 -1 -7 7 11 5 21 9 22 9 1 1 4 -3 7 -7z m246 -2 c0
-5 -10 -10 -22 -10 -19 0 -20 2 -8 10 19 13 30 13 30 0z m40 -10 c0 -5 -5 -10
-11 -10 -5 0 -7 5 -4 10 3 6 8 10 11 10 2 0 4 -4 4 -10z m-255 -22 c-19 -11
-30 -5 -21 11 4 6 14 7 22 4 15 -5 14 -7 -1 -15z m50 2 c3 -5 -1 -10 -9 -10
-9 0 -16 5 -16 10 0 6 4 10 9 10 6 0 13 -4 16 -10z m30 -10 c3 -5 1 -10 -4
-10 -6 0 -11 5 -11 10 0 6 2 10 4 10 3 0 8 -4 11 -10z m202 -13 c7 -16 7 -25
-1 -32 -13 -12 -46 -16 -46 -6 0 4 -12 6 -27 5 -38 -2 -41 -4 -18 -14 15 -7
16 -9 4 -9 -9 -1 -22 6 -29 14 -7 8 -17 12 -23 8 -6 -3 -7 -1 -3 5 4 7 20 12
37 12 16 0 29 5 29 12 0 9 3 9 11 1 14 -14 39 -6 39 13 0 22 16 17 27 -9z
m-362 -17 c3 -5 1 -10 -4 -10 -6 0 -11 5 -11 10 0 6 2 10 4 10 3 0 8 -4 11
-10z m200 -30 c3 -5 1 -10 -4 -10 -6 0 -11 5 -11 10 0 6 2 10 4 10 3 0 8 -4
11 -10z m38 -26 c-6 -16 -19 -18 -28 -4 -3 6 -1 10 5 10 6 0 8 4 5 10 -3 5 0
7 9 4 8 -3 12 -12 9 -20z m70 -31 c-7 -2 -19 -2 -25 0 -7 3 -2 5 12 5 14 0 19
-2 13 -5z m-302 -43 c6 0 8 -4 5 -9 -8 -13 -39 -7 -44 9 -3 9 1 11 12 7 10 -4
22 -7 27 -7z"/>
<path d="M2537 2509 c5 -5 22 -5 38 0 30 9 30 9 -8 8 -21 0 -34 -4 -30 -8z"/>
<path d="M6001 2504 c0 -11 3 -14 6 -6 3 7 2 16 -1 19 -3 4 -6 -2 -5 -13z"/>
<path d="M3490 2485 c0 -8 4 -15 10 -15 5 0 7 7 4 15 -4 8 -8 15 -10 15 -2 0
-4 -7 -4 -15z"/>
<path d="M2420 2480 c0 -6 7 -10 15 -10 8 0 15 2 15 4 0 2 -7 6 -15 10 -8 3
-15 1 -15 -4z"/>
<path d="M6003 2483 c-13 -2 -23 -9 -23 -14 0 -6 9 -7 20 -4 11 4 20 2 20 -4
0 -6 -5 -11 -12 -11 -6 0 -9 -3 -6 -6 4 -3 15 -1 26 5 23 12 64 3 55 -13 -4
-8 -2 -8 7 1 17 16 4 33 -28 34 l-27 1 25 8 c24 8 24 8 -5 8 -16 -1 -40 -3
-52 -5z"/>
<path d="M3165 2460 c-3 -6 -11 -8 -16 -5 -5 3 -6 -1 -3 -9 7 -18 -7 -21 -22
-6 -7 7 -17 3 -30 -11 -17 -20 -17 -22 -2 -16 10 3 20 2 24 -4 4 -6 13 -4 25
7 18 17 20 16 33 -2 8 -10 12 -21 9 -24 -3 -3 -8 1 -10 8 -4 10 -8 10 -19 1
-16 -13 -19 -33 -4 -24 6 3 7 -1 4 -9 -3 -9 -1 -16 5 -16 6 0 11 4 11 9 0 5 8
12 17 15 16 6 16 6 0 -12 -16 -17 -16 -21 -2 -32 8 -7 15 -19 15 -26 0 -8 8
-14 18 -15 11 -1 9 -4 -8 -9 l-25 -8 28 -1 c26 -1 27 1 23 36 -3 21 -10 39
-16 41 -5 2 -10 10 -10 18 0 8 -7 29 -15 47 -15 30 -15 31 1 10 9 -13 22 -23
28 -23 6 0 4 5 -4 10 -11 7 -12 12 -3 18 9 5 9 11 0 22 -15 19 -43 24 -52 10z
m-37 -45 c-3 -3 -9 2 -12 12 -6 14 -5 15 5 6 7 -7 10 -15 7 -18z"/>
<path d="M2225 2443 c5 -19 3 -22 -12 -16 -17 7 -17 6 0 -11 23 -23 22 -29 -4
-15 -19 10 -20 9 -14 -13 6 -22 6 -22 -9 -4 -15 18 -16 18 -16 2 0 -10 -5 -14
-11 -10 -7 4 -10 1 -7 -7 3 -9 15 -13 32 -11 15 2 34 -2 43 -10 14 -11 15 -10
10 7 -6 16 -2 20 18 21 14 1 25 -3 25 -10 0 -6 4 -5 9 3 8 12 12 12 25 2 14
-12 16 -10 16 15 0 19 -3 25 -8 16 -7 -10 -15 -6 -35 14 -15 15 -27 31 -27 35
0 5 -5 9 -12 9 -6 0 -3 -10 8 -21 14 -16 16 -23 6 -26 -6 -3 -10 -9 -6 -14 3
-5 1 -9 -4 -9 -6 0 -13 7 -16 16 -3 8 -2 12 4 9 15 -9 11 7 -6 30 -16 20 -16
20 -9 -2z"/>
<path d="M2280 2451 c0 -5 7 -12 16 -15 14 -5 15 -4 4 9 -14 17 -20 19 -20 6z"/>
<path d="M2436 2451 c-8 -12 2 -38 18 -44 7 -3 12 5 11 21 0 26 -18 41 -29 23z
m19 -11 c3 -5 1 -10 -4 -10 -6 0 -11 5 -11 10 0 6 2 10 4 10 3 0 8 -4 11 -10z"/>
<path d="M3479 2433 c-13 -16 -12 -17 4 -4 16 13 21 21 13 21 -2 0 -10 -8 -17
-17z"/>
<path d="M3430 2434 c0 -5 6 -19 14 -30 12 -15 17 -17 27 -6 11 10 10 12 0 12
-8 0 -20 8 -27 18 -7 9 -14 12 -14 6z"/>
<path d="M5876 2433 c-11 -11 -6 -23 9 -23 8 0 15 4 15 9 0 13 -16 22 -24 14z"/>
<path d="M6045 2430 c4 -6 11 -8 16 -5 14 9 11 15 -7 15 -8 0 -12 -5 -9 -10z"/>
<path d="M3100 2390 c0 -5 5 -10 11 -10 5 0 7 5 4 10 -3 6 -8 10 -11 10 -2 0
-4 -4 -4 -10z"/>
<path d="M4024 2380 c0 -10 6 -16 13 -13 7 3 13 9 13 13 0 4 -6 10 -13 13 -7
3 -13 -3 -13 -13z"/>
<path d="M5938 2393 c7 -3 16 -2 19 1 4 3 -2 6 -13 5 -11 0 -14 -3 -6 -6z"/>
<path d="M3320 2362 c6 -12 10 -28 9 -35 -3 -29 2 -37 26 -37 21 0 24 3 17 18
-5 9 -7 23 -4 31 3 8 -1 12 -9 9 -8 -3 -22 5 -32 16 l-18 21 11 -23z m25 -42
c-3 -5 -1 -10 6 -10 7 0 10 -3 6 -6 -9 -9 -28 6 -22 17 4 5 8 9 11 9 3 0 2 -4
-1 -10z"/>
<path d="M3107 2362 c-9 -2 -15 -7 -12 -12 3 -5 12 -7 20 -3 22 8 18 -7 -7
-31 -13 -11 -24 -33 -24 -48 -2 -29 10 -35 36 -18 12 8 12 10 -2 15 -27 11
-10 45 23 45 16 0 29 2 29 5 0 15 -47 50 -63 47z"/>
<path d="M3250 2348 c0 -10 4 -18 10 -18 5 0 7 -7 4 -15 -4 -10 0 -15 12 -14
11 0 14 3 6 6 -6 2 -10 8 -7 12 2 5 -2 17 -10 27 -13 17 -14 18 -15 2z"/>
<path d="M6590 2340 c-6 -11 -8 -20 -6 -20 3 0 10 9 16 20 6 11 8 20 6 20 -3
0 -10 -9 -16 -20z"/>
<path d="M3970 2340 l-35 -6 30 -6 c17 -4 34 -2 39 3 14 13 5 16 -34 9z"/>
<path d="M5830 2336 c0 -14 29 -31 38 -21 3 2 -3 8 -12 11 -14 5 -15 9 -4 15
10 7 9 9 -4 9 -10 0 -18 -6 -18 -14z"/>
<path d="M3048 2333 c7 -3 16 -2 19 1 4 3 -2 6 -13 5 -11 0 -14 -3 -6 -6z"/>
<path d="M2170 2320 c0 -5 5 -10 11 -10 5 0 7 5 4 10 -3 6 -8 10 -11 10 -2 0
-4 -4 -4 -10z"/>
<path d="M2265 2320 c-3 -6 1 -7 9 -4 18 7 21 14 7 14 -6 0 -13 -4 -16 -10z"/>
<path d="M3370 2326 c0 -2 7 -9 15 -16 13 -11 14 -10 9 4 -5 14 -24 23 -24 12z"/>
<path d="M5916 2315 c-3 -8 -1 -15 4 -15 6 0 10 7 10 15 0 8 -2 15 -4 15 -2 0
-6 -7 -10 -15z"/>
<path d="M3125 2290 c-3 -5 0 -10 8 -10 9 0 14 -11 14 -30 0 -22 -5 -30 -19
-30 -20 0 -22 -8 -9 -29 6 -10 19 -12 40 -8 l31 7 -20 -22 c-20 -21 -26 -38
-14 -38 3 0 15 10 25 23 l20 22 -15 -36 c-10 -26 -11 -40 -3 -48 19 -19 36
-80 23 -85 -7 -3 -6 -5 2 -5 7 -1 11 -5 8 -10 -3 -5 0 -14 8 -20 11 -9 15 -6
18 14 3 14 1 25 -5 25 -5 0 -4 7 3 15 7 8 9 15 4 15 -4 0 -3 5 4 12 17 17 15
31 -2 25 -10 -4 -13 -1 -9 8 3 8 9 12 14 9 17 -10 21 25 5 48 -19 27 -20 38
-4 38 6 0 9 -3 5 -6 -3 -4 0 -13 8 -20 24 -25 24 -15 0 29 -28 47 -31 62 -12
51 7 -5 7 -1 -2 10 -13 15 -15 16 -23 1 -5 -8 -6 -25 -2 -38 5 -17 4 -19 -6
-10 -7 6 -12 23 -12 36 0 19 -5 23 -20 19 -15 -4 -17 -7 -6 -13 7 -5 8 -9 2
-9 -18 0 -24 12 -13 31 7 15 6 19 -6 19 -8 0 -15 5 -15 10 0 6 -4 10 -9 10 -6
0 -13 -4 -16 -10z m45 -84 c-19 -8 -39 -11 -44 -8 -13 7 23 21 54 21 22 -1 20
-2 -10 -13z"/>
<path d="M3279 2278 c-15 -13 -18 -19 -7 -15 12 4 20 -2 27 -21 5 -15 10 -20
10 -12 0 8 -3 22 -9 30 -5 9 -5 19 2 27 16 20 4 15 -23 -9z"/>
<path d="M5886 2275 c-3 -8 -1 -15 4 -15 6 0 10 7 10 15 0 8 -2 15 -4 15 -2 0
-6 -7 -10 -15z"/>
<path d="M6120 2280 c0 -5 5 -10 10 -10 6 0 10 5 10 10 0 6 -4 10 -10 10 -5 0
-10 -4 -10 -10z"/>
<path d="M2997 2269 c7 -7 15 -10 18 -7 3 3 -2 9 -12 12 -14 6 -15 5 -6 -5z"/>
<path d="M3065 2220 c3 -5 10 -10 16 -10 5 0 9 5 9 10 0 6 -7 10 -16 10 -8 0
-12 -4 -9 -10z"/>
<path d="M3281 2204 c6 -8 18 -14 25 -14 8 0 14 -5 14 -11 0 -5 -4 -7 -10 -4
-16 10 -12 -11 5 -25 13 -11 14 -10 9 4 -5 13 -2 15 12 9 18 -7 18 -6 2 11
-10 9 -18 21 -18 26 0 4 -11 10 -25 12 -20 4 -23 3 -14 -8z"/>
<path d="M2960 2140 c0 -5 4 -10 9 -10 6 0 13 5 16 10 3 6 -1 10 -9 10 -9 0
-16 -4 -16 -10z"/>
<path d="M2355 2130 c3 -5 8 -10 11 -10 2 0 4 5 4 10 0 6 -5 10 -11 10 -5 0
-7 -4 -4 -10z"/>
<path d="M3283 2103 c4 -3 1 -13 -6 -22 -11 -14 -10 -14 6 -2 20 15 22 31 5
31 -6 0 -8 -3 -5 -7z"/>
<path d="M2842 2035 c-7 -14 -8 -24 -3 -20 5 3 12 1 16 -5 3 -6 -4 -14 -16
-18 l-23 -9 22 -5 c12 -4 22 -12 21 -20 0 -10 -2 -10 -6 0 -6 14 -33 16 -33 2
0 -9 6 -11 43 -14 6 -1 11 7 9 17 -2 9 1 17 5 16 20 -3 23 2 8 17 -9 10 -14
25 -12 36 3 10 1 16 -3 13 -5 -3 -10 0 -12 6 -2 6 -9 -1 -16 -16z"/>
<path d="M3260 2039 c0 -5 5 -7 10 -4 6 3 10 8 10 11 0 2 -4 4 -10 4 -5 0 -10
-5 -10 -11z"/>
<path d="M3173 2018 c1 -8 -8 -12 -25 -10 -17 2 -28 -1 -28 -8 0 -7 8 -10 19
-7 21 5 70 -37 58 -50 -4 -3 -7 -1 -7 5 0 7 -7 12 -15 12 -8 0 -15 -3 -15 -6
0 -8 32 -33 42 -34 14 0 -1 54 -18 67 -10 7 -13 13 -7 13 6 0 13 7 17 15 3 9
0 15 -9 15 -8 0 -14 -6 -12 -12z"/>
<path d="M4025 2020 c-4 -6 -12 -7 -18 -3 -7 4 -6 0 2 -10 7 -9 22 -17 32 -17
11 0 19 -4 19 -9 0 -11 -40 -2 -59 13 -12 9 -12 8 -3 -11 15 -27 15 -30 -1
-30 -7 0 -25 -3 -41 -7 -21 -5 -27 -4 -23 6 2 7 16 12 31 11 14 -1 26 2 26 8
0 12 -47 12 -55 -1 -4 -6 -11 -8 -16 -5 -12 8 -11 -2 2 -26 7 -14 16 -18 27
-14 14 5 15 4 5 -6 -10 -10 -16 -10 -25 -1 -9 9 -14 7 -24 -6 -7 -9 -16 -14
-20 -9 -4 4 1 13 11 21 16 12 17 16 6 30 -16 19 -37 21 -44 4 -4 -10 -6 -10
-6 0 -1 10 -5 9 -17 -3 -9 -9 -29 -19 -45 -22 -16 -3 -26 -9 -23 -14 3 -5 -4
-9 -15 -9 -12 0 -21 -5 -21 -11 0 -6 7 -9 15 -5 8 3 19 -3 25 -12 9 -14 10
-14 5 6 -7 23 -6 24 36 26 18 1 25 -2 22 -11 -6 -17 -20 -17 -26 0 -2 7 -8 8
-13 3 -5 -5 -4 -11 4 -13 6 -3 12 -11 12 -18 0 -7 -6 -16 -12 -18 -7 -3 0 -6
16 -6 23 -1 27 2 22 17 -3 10 3 6 17 -10 20 -24 24 -25 41 -12 11 8 27 14 35
14 14 -1 14 -2 0 -13 -9 -7 -15 -18 -13 -25 1 -7 0 -8 -3 -2 -7 15 -26 12 -20
-3 3 -7 -3 -13 -13 -13 -10 0 -16 6 -13 13 3 7 0 13 -6 13 -6 0 -11 -4 -11 -9
0 -5 -12 -8 -27 -5 -15 3 -29 0 -34 -8 -4 -7 -12 -9 -16 -4 -4 5 -2 11 5 13 6
3 12 9 12 15 0 6 -7 7 -16 4 -11 -4 -15 -2 -11 8 8 19 -3 27 -18 13 -9 -9 -9
-14 2 -25 15 -16 16 -22 3 -42 -8 -13 -14 -11 -37 13 -15 15 -22 27 -15 27 6
0 12 4 12 9 0 16 -37 8 -49 -11 -7 -11 -7 -18 -1 -18 5 0 10 -5 10 -11 0 -6
-7 -9 -15 -5 -8 3 -22 3 -30 0 -13 -5 -13 -9 -3 -22 11 -13 10 -15 -3 -10 -9
4 -16 1 -16 -8 0 -7 4 -11 9 -8 4 3 5 -2 2 -10 -3 -9 -9 -14 -13 -12 -3 2 -14
-4 -24 -14 -17 -17 -17 -18 0 -25 20 -9 72 -7 88 3 6 4 20 5 33 3 25 -3 27 1
10 29 -11 17 -10 22 2 30 20 13 10 12 -29 -1 -29 -10 -43 -29 -21 -29 6 0 10
5 10 12 0 6 9 3 20 -7 11 -10 18 -21 15 -24 -4 -3 -10 1 -16 9 -8 13 -10 13
-20 0 -8 -11 -12 -12 -16 -2 -2 6 -9 12 -15 12 -6 0 -8 -6 -5 -12 3 -8 -6 -14
-25 -15 -17 -1 -26 2 -22 8 3 6 8 8 11 5 4 -3 15 4 25 16 13 15 17 30 13 47
-6 25 -6 25 15 6 12 -11 21 -15 20 -10 -5 22 1 27 18 14 15 -13 16 -12 3 4
-21 26 -8 30 23 6 20 -16 30 -18 40 -10 13 11 26 5 26 -11 0 -5 -5 -6 -12 -2
-7 4 -8 3 -4 -4 5 -8 15 -8 34 -1 21 8 29 7 38 -5 6 -9 22 -20 35 -25 21 -9
19 -10 -18 -10 -24 -1 -43 -5 -43 -11 0 -5 -7 -10 -15 -10 -9 0 -12 -6 -9 -15
4 -8 13 -15 21 -15 8 0 12 4 9 9 -3 5 12 5 35 0 23 -6 44 -7 47 -4 3 3 -2 5
-11 5 -9 0 -17 5 -17 10 0 6 6 10 14 10 7 0 19 7 26 15 11 13 15 13 21 3 7
-10 9 -10 9 0 0 6 5 12 11 12 6 0 9 -6 6 -12 -2 -7 0 -21 5 -30 5 -11 5 -18
-1 -18 -8 0 -25 -35 -23 -50 0 -3 -4 -14 -10 -25 -6 -14 -3 -13 11 5 10 13 17
28 15 32 -3 5 2 15 10 24 9 9 13 20 10 26 -4 6 -7 20 -8 32 -1 13 -8 20 -19
20 -9 -1 -17 2 -17 8 0 5 -6 6 -12 2 -7 -4 -10 -3 -5 1 9 10 57 14 51 4 -2 -4
3 -10 12 -13 21 -8 64 40 64 72 0 20 -3 23 -12 14 -9 -9 -14 -7 -24 6 -8 9
-13 22 -14 27 0 6 5 3 10 -5 12 -20 61 -24 53 -4 -3 8 1 14 10 14 18 0 30 27
17 35 -6 4 -10 11 -10 17 0 6 7 5 18 -3 9 -7 14 -9 10 -5 -4 5 -3 15 2 22 6 6
10 16 9 20 -1 5 1 17 6 27 6 15 10 16 17 5 8 -11 9 -10 6 1 -2 8 -14 16 -26
17 -16 3 -20 0 -16 -14 5 -13 4 -14 -4 -3 -6 8 -8 21 -5 28 4 10 0 14 -13 12
-10 -2 -24 0 -31 4 -6 4 -14 3 -18 -3z m-135 -81 c0 -5 -4 -9 -10 -9 -5 0 -10
7 -10 16 0 8 5 12 10 9 6 -3 10 -10 10 -16z m-30 -20 c0 -10 5 -19 11 -19 6 0
9 -7 5 -15 -3 -8 -3 -15 0 -15 3 0 12 7 20 15 16 16 34 20 34 8 0 -5 -13 -17
-27 -27 -19 -14 -28 -16 -31 -8 -2 7 -10 19 -18 26 -8 8 -11 22 -8 30 4 11 0
16 -12 16 -16 0 -16 2 -4 9 18 12 30 5 30 -20z m240 21 c0 -5 -10 -10 -22 -10
-19 0 -20 2 -8 10 19 13 30 13 30 0z m-100 -20 c-8 -5 -19 -10 -25 -10 -5 0
-3 5 5 10 8 5 20 10 25 10 6 0 3 -5 -5 -10z m-30 -30 c0 -5 -5 -10 -11 -10 -5
0 -7 5 -4 10 3 6 8 10 11 10 2 0 4 -4 4 -10z m70 0 c0 -5 -5 -10 -11 -10 -5 0
-7 5 -4 10 3 6 8 10 11 10 2 0 4 -4 4 -10z m-40 -80 c0 -5 -4 -10 -10 -10 -5
0 -10 5 -10 10 0 6 5 10 10 10 6 0 10 -4 10 -10z m-152 -35 c-3 -3 -9 2 -12
12 -6 14 -5 15 5 6 7 -7 10 -15 7 -18z m172 6 c-10 -20 -30 -37 -30 -27 0 6
33 46 38 46 1 0 -2 -9 -8 -19z m-60 -1 c0 -5 -4 -10 -10 -10 -5 0 -10 5 -10
10 0 6 5 10 10 10 6 0 10 -4 10 -10z m-45 -10 c-3 -5 -12 -10 -18 -10 -7 0 -6
4 3 10 19 12 23 12 15 0z"/>
<path d="M3040 1991 c0 -5 5 -13 10 -16 6 -3 10 -2 10 4 0 5 -4 13 -10 16 -5
3 -10 2 -10 -4z"/>
<path d="M2903 1974 c-15 -16 -16 -24 -4 -24 8 0 24 30 19 35 -2 2 -9 -3 -15
-11z"/>
<path d="M3681 1877 c-8 -11 -5 -14 19 -14 32 0 40 11 14 21 -21 8 -20 8 -33
-7z"/>
<path d="M3727 1814 c3 -7 9 -14 14 -14 14 0 10 17 -5 23 -10 4 -13 1 -9 -9z"/>
<path d="M3805 1750 c-3 -5 -2 -10 4 -10 5 0 13 5 16 10 3 6 2 10 -4 10 -5 0
-13 -4 -16 -10z"/>
<path d="M3720 1732 c0 -5 7 -15 15 -22 8 -7 15 -8 15 -2 0 5 -7 15 -15 22 -8
7 -15 8 -15 2z"/>
<path d="M3764 1722 c11 -12 19 -13 27 -5 7 7 3 12 -16 15 -25 5 -25 4 -11
-10z"/>
<path d="M3573 1653 c0 -8 6 -9 16 -4 9 5 23 11 31 14 8 3 1 4 -16 4 -17 -1
-31 -7 -31 -14z"/>
<path d="M3840 1660 c0 -5 7 -10 16 -10 8 0 12 5 9 10 -3 6 -10 10 -16 10 -5
0 -9 -4 -9 -10z"/>
<path d="M3500 1595 c-11 -13 -11 -18 0 -28 10 -10 11 -9 5 2 -5 9 -1 19 10
28 11 7 14 13 8 13 -6 0 -16 -7 -23 -15z"/>
<path d="M4360 1460 c0 -5 0 -13 0 -17 0 -5 4 -8 9 -8 5 0 13 -3 17 -7 4 -5 3
-8 -3 -8 -6 0 -16 -14 -22 -31 -14 -39 -14 -49 -1 -49 5 0 7 7 4 15 -4 8 -1
15 5 15 6 0 8 8 4 18 -6 15 -5 15 10 3 9 -7 18 -11 18 -7 5 23 4 32 -3 43 -6
7 -3 15 9 22 10 6 13 11 8 11 -6 0 -16 -5 -23 -12 -9 -9 -12 -8 -12 5 0 9 -4
17 -10 17 -5 0 -10 -4 -10 -10z"/>
<path d="M2511 788 c-1 -20 14 -24 25 -6 4 6 3 8 -4 4 -5 -3 -13 0 -15 6 -3 8
-6 6 -6 -4z"/>
</g>
</svg>
